G04 #@! TF.FileFunction,Copper,L2,Bot,Signal*
%FSLAX46Y46*%
G04 Gerber Fmt 4.6, Leading zero omitted, Abs format (unit mm)*
G04 Created by KiCad (PCBNEW 4.0.7) date Sun Jun 24 13:53:47 2018*
%MOMM*%
%LPD*%
G01*
G04 APERTURE LIST*
%ADD10C,0.100000*%
%ADD11C,0.150000*%
%ADD12R,1.200000X1.200000*%
%ADD13C,1.200000*%
%ADD14R,0.900000X0.800000*%
%ADD15R,1.300000X1.500000*%
%ADD16R,1.500000X1.300000*%
%ADD17R,1.550000X0.600000*%
%ADD18R,1.710000X1.710000*%
%ADD19C,1.710000*%
%ADD20R,1.700000X1.700000*%
%ADD21O,1.700000X1.700000*%
%ADD22R,3.500000X1.800000*%
%ADD23R,1.000000X1.000000*%
%ADD24C,0.800000*%
%ADD25C,0.250000*%
%ADD26C,0.381000*%
%ADD27C,0.254000*%
G04 APERTURE END LIST*
D10*
D11*
X109800000Y-113600000D02*
X109800000Y-69600000D01*
X153800000Y-113600000D02*
X109800000Y-113600000D01*
X153800000Y-69600000D02*
X153800000Y-113600000D01*
X109800000Y-69600000D02*
X153800000Y-69600000D01*
D12*
X140820000Y-81890000D03*
D13*
X140820000Y-79890000D03*
D12*
X122590000Y-77340000D03*
D13*
X120590000Y-77340000D03*
D14*
X126690000Y-81010000D03*
X126690000Y-79110000D03*
X128690000Y-80060000D03*
D15*
X112370000Y-87410000D03*
X112370000Y-84710000D03*
D16*
X115850000Y-91450000D03*
X113150000Y-91450000D03*
X123960000Y-83370000D03*
X126660000Y-83370000D03*
X151530000Y-96750000D03*
X148830000Y-96750000D03*
X148830000Y-98710000D03*
X151530000Y-98710000D03*
D15*
X137660000Y-86160000D03*
X137660000Y-83460000D03*
X144440000Y-102280000D03*
X144440000Y-99580000D03*
X135060000Y-102440000D03*
X135060000Y-99740000D03*
D16*
X125540000Y-93540000D03*
X122840000Y-93540000D03*
D17*
X121080000Y-82095000D03*
X121080000Y-83365000D03*
X121080000Y-84635000D03*
X121080000Y-85905000D03*
X115680000Y-85905000D03*
X115680000Y-84635000D03*
X115680000Y-83365000D03*
X115680000Y-82095000D03*
D18*
X128360000Y-73610000D03*
D19*
X133440000Y-73610000D03*
X138520000Y-73610000D03*
X143600000Y-73610000D03*
D20*
X149490000Y-87070000D03*
D21*
X149490000Y-89610000D03*
X149490000Y-92150000D03*
D20*
X122570000Y-72280000D03*
D21*
X120030000Y-72280000D03*
D22*
X133440000Y-76790000D03*
X138440000Y-76790000D03*
D23*
X141840000Y-93420000D03*
X139840000Y-93420000D03*
X137840000Y-93420000D03*
X135840000Y-93420000D03*
X133840000Y-93420000D03*
X131840000Y-93420000D03*
D20*
X114940000Y-95920000D03*
D21*
X114940000Y-98460000D03*
X114940000Y-101000000D03*
X114940000Y-103540000D03*
D20*
X125676000Y-102880000D03*
D21*
X123136000Y-102880000D03*
X120596000Y-102880000D03*
X118056000Y-102880000D03*
D24*
X112120000Y-89160000D03*
X125168000Y-109484000D03*
X129050000Y-77420000D03*
X141424000Y-100086000D03*
X122180000Y-92150000D03*
X131010000Y-105674000D03*
X120850000Y-107706000D03*
X120850000Y-97546000D03*
X148790000Y-106436000D03*
X137614000Y-88148000D03*
X145710000Y-90730000D03*
X146504000Y-95260000D03*
X146760000Y-111140000D03*
X140370000Y-103880000D03*
X132810000Y-99080000D03*
X131772000Y-102626000D03*
X124530000Y-87700000D03*
D25*
X149490000Y-91930000D02*
X146690000Y-88130000D01*
X149490000Y-92150000D02*
X149490000Y-91930000D01*
X112120000Y-89160000D02*
X112120000Y-87660000D01*
X112120000Y-87660000D02*
X112370000Y-87410000D01*
X115680000Y-83365000D02*
X113715000Y-83365000D01*
X113715000Y-83365000D02*
X112370000Y-84710000D01*
X112375000Y-84715000D02*
X112370000Y-84710000D01*
X120596000Y-102880000D02*
X120596000Y-104912000D01*
X120596000Y-104912000D02*
X125168000Y-109484000D01*
X125168000Y-109484000D02*
X120596000Y-104912000D01*
D26*
X122590000Y-77340000D02*
X122590000Y-75650000D01*
X116930000Y-74850000D02*
X115680000Y-76100000D01*
X121790000Y-74850000D02*
X116930000Y-74850000D01*
X122590000Y-75650000D02*
X121790000Y-74850000D01*
X115680000Y-76100000D02*
X115680000Y-82095000D01*
X122570000Y-72280000D02*
X127030000Y-72280000D01*
X127030000Y-72280000D02*
X128360000Y-73610000D01*
X133440000Y-76790000D02*
X133440000Y-73610000D01*
X133440000Y-73610000D02*
X133450000Y-76780000D01*
X133450000Y-76780000D02*
X133440000Y-76790000D01*
X128360000Y-73610000D02*
X133440000Y-73610000D01*
X122590000Y-77340000D02*
X122590000Y-72300000D01*
X122590000Y-72300000D02*
X122570000Y-72280000D01*
D25*
X128690000Y-80060000D02*
X128690000Y-77760000D01*
X129030000Y-77420000D02*
X129050000Y-77420000D01*
X128690000Y-77760000D02*
X129030000Y-77420000D01*
X128690000Y-80060000D02*
X128690000Y-79990000D01*
D27*
X128690000Y-80060000D02*
X128690000Y-80030000D01*
X138520000Y-76710000D02*
X138520000Y-73610000D01*
X138520000Y-73610000D02*
X138530000Y-76700000D01*
X144440000Y-99580000D02*
X141930000Y-99580000D01*
X141930000Y-99580000D02*
X141424000Y-100086000D01*
X137660000Y-83460000D02*
X139250000Y-83460000D01*
X139250000Y-83460000D02*
X140820000Y-81890000D01*
X149490000Y-87070000D02*
X146000000Y-87070000D01*
X146000000Y-87070000D02*
X140820000Y-81890000D01*
X122840000Y-93540000D02*
X122840000Y-92810000D01*
X122840000Y-92810000D02*
X122180000Y-92150000D01*
D26*
X151530000Y-96750000D02*
X151530000Y-96076000D01*
X152050000Y-95556000D02*
X152050000Y-94540000D01*
X151530000Y-96076000D02*
X152050000Y-95556000D01*
X142694000Y-95768000D02*
X142440000Y-96022000D01*
X142440000Y-96022000D02*
X142186000Y-96022000D01*
X147266000Y-93228000D02*
X145234000Y-93228000D01*
X145234000Y-93228000D02*
X142694000Y-95768000D01*
X140154000Y-96022000D02*
X142186000Y-96022000D01*
X125676000Y-103642000D02*
X130756000Y-108722000D01*
X138122000Y-98054000D02*
X140154000Y-96022000D01*
X138122000Y-105166000D02*
X138122000Y-98054000D01*
X134566000Y-108722000D02*
X138122000Y-105166000D01*
X130756000Y-108722000D02*
X134566000Y-108722000D01*
X125676000Y-102880000D02*
X125676000Y-103642000D01*
X147266000Y-93228000D02*
X148536000Y-94498000D01*
X151530000Y-96750000D02*
X151530000Y-95968000D01*
X151530000Y-95968000D02*
X150060000Y-94498000D01*
X148536000Y-94498000D02*
X150060000Y-94498000D01*
X152050000Y-94540000D02*
X152050000Y-82060000D01*
X152050000Y-82060000D02*
X143600000Y-73610000D01*
X143640000Y-73540000D02*
X143640000Y-73600000D01*
D25*
X131010000Y-105674000D02*
X129486000Y-104150000D01*
X129486000Y-104150000D02*
X129486000Y-102372000D01*
X129486000Y-102372000D02*
X127454000Y-100340000D01*
X127454000Y-100340000D02*
X119360000Y-100340000D01*
X119360000Y-100340000D02*
X114940000Y-95920000D01*
X115230000Y-95920000D02*
X114940000Y-95920000D01*
X120850000Y-107706000D02*
X115516000Y-107706000D01*
X113840000Y-98460000D02*
X114940000Y-98460000D01*
X112214000Y-100086000D02*
X113840000Y-98460000D01*
X112214000Y-104404000D02*
X112214000Y-100086000D01*
X115516000Y-107706000D02*
X112214000Y-104404000D01*
X117910000Y-91450000D02*
X117910000Y-85500000D01*
X118775000Y-84635000D02*
X121080000Y-84635000D01*
X117910000Y-85500000D02*
X118775000Y-84635000D01*
X115850000Y-91450000D02*
X117910000Y-91450000D01*
X117910000Y-91450000D02*
X117802000Y-91450000D01*
X117802000Y-91450000D02*
X117910000Y-91450000D01*
X120850000Y-97546000D02*
X120596000Y-97546000D01*
X117910000Y-94860000D02*
X117910000Y-91450000D01*
X120596000Y-97546000D02*
X117910000Y-94860000D01*
X121080000Y-83365000D02*
X122795000Y-83365000D01*
X122795000Y-83365000D02*
X123960000Y-83370000D01*
D26*
X148790000Y-105420000D02*
X148830000Y-105420000D01*
X148830000Y-105460000D02*
X148790000Y-105420000D01*
X148830000Y-106396000D02*
X148830000Y-105460000D01*
X148790000Y-106436000D02*
X148830000Y-106396000D01*
X148830000Y-105420000D02*
X148830000Y-96750000D01*
X148830000Y-98710000D02*
X148830000Y-96750000D01*
X148830000Y-96750000D02*
X148830000Y-96180000D01*
X148830000Y-96750000D02*
X148810000Y-98690000D01*
X148810000Y-98690000D02*
X148830000Y-98710000D01*
D25*
X137614000Y-88148000D02*
X137642000Y-88120000D01*
X137642000Y-88120000D02*
X137660000Y-88120000D01*
X137660000Y-88120000D02*
X137730000Y-88190000D01*
X145710000Y-90730000D02*
X140270000Y-90730000D01*
X140270000Y-90730000D02*
X137730000Y-88190000D01*
X146760000Y-111140000D02*
X146760000Y-111050000D01*
X146520000Y-110810000D02*
X146520000Y-96340000D01*
X146760000Y-111050000D02*
X146520000Y-110810000D01*
X146520000Y-96340000D02*
X146504000Y-95260000D01*
X137660000Y-86160000D02*
X137660000Y-88120000D01*
X137660000Y-88120000D02*
X137730000Y-88190000D01*
X137660000Y-86340000D02*
X137660000Y-86160000D01*
X140370000Y-103880000D02*
X140370000Y-102850000D01*
X140370000Y-102850000D02*
X140940000Y-102280000D01*
X140940000Y-102280000D02*
X144440000Y-102280000D01*
X144440000Y-102830000D02*
X144440000Y-102280000D01*
X132810000Y-99080000D02*
X134400000Y-99080000D01*
X134400000Y-99080000D02*
X135060000Y-99740000D01*
X134720000Y-99740000D02*
X135060000Y-99740000D01*
X131772000Y-102626000D02*
X131772000Y-101102000D01*
X131772000Y-101102000D02*
X127200000Y-96530000D01*
X127200000Y-95200000D02*
X125540000Y-93540000D01*
X127200000Y-96530000D02*
X127200000Y-95200000D01*
X125540000Y-93540000D02*
X125540000Y-88710000D01*
X125540000Y-88710000D02*
X124530000Y-87700000D01*
X126660000Y-83370000D02*
X126660000Y-81040000D01*
X126660000Y-81040000D02*
X126690000Y-81010000D01*
D27*
G36*
X153090000Y-112890000D02*
X110510000Y-112890000D01*
X110510000Y-110022815D01*
X111164630Y-110022815D01*
X111488980Y-110807800D01*
X112089041Y-111408909D01*
X112873459Y-111734628D01*
X113722815Y-111735370D01*
X114507800Y-111411020D01*
X115108909Y-110810959D01*
X115434628Y-110026541D01*
X115435370Y-109177185D01*
X115111020Y-108392200D01*
X114510959Y-107791091D01*
X113726541Y-107465372D01*
X112877185Y-107464630D01*
X112092200Y-107788980D01*
X111491091Y-108389041D01*
X111165372Y-109173459D01*
X111164630Y-110022815D01*
X110510000Y-110022815D01*
X110510000Y-100086000D01*
X111454000Y-100086000D01*
X111454000Y-104404000D01*
X111511852Y-104694839D01*
X111676599Y-104941401D01*
X114978599Y-108243401D01*
X115225160Y-108408148D01*
X115516000Y-108466000D01*
X120146239Y-108466000D01*
X120262954Y-108582919D01*
X120643223Y-108740820D01*
X121054971Y-108741179D01*
X121435515Y-108583942D01*
X121726919Y-108293046D01*
X121884820Y-107912777D01*
X121885179Y-107501029D01*
X121727942Y-107120485D01*
X121437046Y-106829081D01*
X121056777Y-106671180D01*
X120645029Y-106670821D01*
X120264485Y-106828058D01*
X120146337Y-106946000D01*
X115830802Y-106946000D01*
X112974000Y-104089198D01*
X112974000Y-103896890D01*
X113498524Y-103896890D01*
X113668355Y-104306924D01*
X114058642Y-104735183D01*
X114583108Y-104981486D01*
X114813000Y-104860819D01*
X114813000Y-103667000D01*
X115067000Y-103667000D01*
X115067000Y-104860819D01*
X115296892Y-104981486D01*
X115821358Y-104735183D01*
X116211645Y-104306924D01*
X116381476Y-103896890D01*
X116260155Y-103667000D01*
X115067000Y-103667000D01*
X114813000Y-103667000D01*
X113619845Y-103667000D01*
X113498524Y-103896890D01*
X112974000Y-103896890D01*
X112974000Y-100400802D01*
X113863188Y-99511614D01*
X114190026Y-99730000D01*
X113860853Y-99949946D01*
X113538946Y-100431715D01*
X113425907Y-101000000D01*
X113538946Y-101568285D01*
X113860853Y-102050054D01*
X114201553Y-102277702D01*
X114058642Y-102344817D01*
X113668355Y-102773076D01*
X113498524Y-103183110D01*
X113619845Y-103413000D01*
X114813000Y-103413000D01*
X114813000Y-103393000D01*
X115067000Y-103393000D01*
X115067000Y-103413000D01*
X116260155Y-103413000D01*
X116381476Y-103183110D01*
X116243882Y-102850907D01*
X116571000Y-102850907D01*
X116571000Y-102909093D01*
X116684039Y-103477378D01*
X117005946Y-103959147D01*
X117487715Y-104281054D01*
X118056000Y-104394093D01*
X118624285Y-104281054D01*
X119106054Y-103959147D01*
X119326000Y-103629974D01*
X119545946Y-103959147D01*
X119836000Y-104152954D01*
X119836000Y-104912000D01*
X119893852Y-105202839D01*
X120058599Y-105449401D01*
X124132965Y-109523767D01*
X124132821Y-109688971D01*
X124290058Y-110069515D01*
X124580954Y-110360919D01*
X124961223Y-110518820D01*
X125372971Y-110519179D01*
X125753515Y-110361942D01*
X126044919Y-110071046D01*
X126202820Y-109690777D01*
X126203179Y-109279029D01*
X126045942Y-108898485D01*
X125755046Y-108607081D01*
X125374777Y-108449180D01*
X125207836Y-108449034D01*
X121356000Y-104597198D01*
X121356000Y-104152954D01*
X121646054Y-103959147D01*
X121873702Y-103618447D01*
X121940817Y-103761358D01*
X122369076Y-104151645D01*
X122779110Y-104321476D01*
X123009000Y-104200155D01*
X123009000Y-103007000D01*
X122989000Y-103007000D01*
X122989000Y-102753000D01*
X123009000Y-102753000D01*
X123009000Y-101559845D01*
X123263000Y-101559845D01*
X123263000Y-102753000D01*
X123283000Y-102753000D01*
X123283000Y-103007000D01*
X123263000Y-103007000D01*
X123263000Y-104200155D01*
X123492890Y-104321476D01*
X123902924Y-104151645D01*
X124205937Y-103875499D01*
X124222838Y-103965317D01*
X124361910Y-104181441D01*
X124574110Y-104326431D01*
X124826000Y-104377440D01*
X125244006Y-104377440D01*
X130172283Y-109305717D01*
X130440094Y-109484663D01*
X130756000Y-109547501D01*
X130756005Y-109547500D01*
X134566000Y-109547500D01*
X134881906Y-109484663D01*
X135149717Y-109305717D01*
X138705714Y-105749719D01*
X138705717Y-105749717D01*
X138884663Y-105481905D01*
X138947500Y-105166000D01*
X138947500Y-104084971D01*
X139334821Y-104084971D01*
X139492058Y-104465515D01*
X139782954Y-104756919D01*
X140163223Y-104914820D01*
X140574971Y-104915179D01*
X140955515Y-104757942D01*
X141246919Y-104467046D01*
X141404820Y-104086777D01*
X141405179Y-103675029D01*
X141247942Y-103294485D01*
X141130000Y-103176337D01*
X141130000Y-103164802D01*
X141254802Y-103040000D01*
X143144442Y-103040000D01*
X143186838Y-103265317D01*
X143325910Y-103481441D01*
X143538110Y-103626431D01*
X143790000Y-103677440D01*
X145090000Y-103677440D01*
X145325317Y-103633162D01*
X145541441Y-103494090D01*
X145686431Y-103281890D01*
X145737440Y-103030000D01*
X145737440Y-101530000D01*
X145693162Y-101294683D01*
X145554090Y-101078559D01*
X145341890Y-100933569D01*
X145328803Y-100930919D01*
X145541441Y-100794090D01*
X145686431Y-100581890D01*
X145737440Y-100330000D01*
X145737440Y-98830000D01*
X145693162Y-98594683D01*
X145554090Y-98378559D01*
X145341890Y-98233569D01*
X145090000Y-98182560D01*
X143790000Y-98182560D01*
X143554683Y-98226838D01*
X143338559Y-98365910D01*
X143193569Y-98578110D01*
X143144990Y-98818000D01*
X141930000Y-98818000D01*
X141652376Y-98873223D01*
X141638395Y-98876004D01*
X141391185Y-99041185D01*
X141381407Y-99050963D01*
X141219029Y-99050821D01*
X140838485Y-99208058D01*
X140547081Y-99498954D01*
X140389180Y-99879223D01*
X140388821Y-100290971D01*
X140546058Y-100671515D01*
X140836954Y-100962919D01*
X141217223Y-101120820D01*
X141628971Y-101121179D01*
X142009515Y-100963942D01*
X142300919Y-100673046D01*
X142438381Y-100342000D01*
X143144818Y-100342000D01*
X143186838Y-100565317D01*
X143325910Y-100781441D01*
X143538110Y-100926431D01*
X143551197Y-100929081D01*
X143338559Y-101065910D01*
X143193569Y-101278110D01*
X143144585Y-101520000D01*
X140940000Y-101520000D01*
X140649161Y-101577852D01*
X140402599Y-101742599D01*
X139832599Y-102312599D01*
X139667852Y-102559161D01*
X139610000Y-102850000D01*
X139610000Y-103176239D01*
X139493081Y-103292954D01*
X139335180Y-103673223D01*
X139334821Y-104084971D01*
X138947500Y-104084971D01*
X138947500Y-98395934D01*
X140495934Y-96847500D01*
X142440000Y-96847500D01*
X142755906Y-96784663D01*
X143023717Y-96605717D01*
X143277714Y-96351719D01*
X143277717Y-96351717D01*
X144164462Y-95464971D01*
X145468821Y-95464971D01*
X145626058Y-95845515D01*
X145754497Y-95974178D01*
X145760000Y-96345656D01*
X145760000Y-110810000D01*
X145765294Y-110836617D01*
X145725180Y-110933223D01*
X145724821Y-111344971D01*
X145882058Y-111725515D01*
X146172954Y-112016919D01*
X146553223Y-112174820D01*
X146964971Y-112175179D01*
X147345515Y-112017942D01*
X147636919Y-111727046D01*
X147794820Y-111346777D01*
X147795179Y-110935029D01*
X147637942Y-110554485D01*
X147347046Y-110263081D01*
X147280000Y-110235241D01*
X147280000Y-110022815D01*
X148164630Y-110022815D01*
X148488980Y-110807800D01*
X149089041Y-111408909D01*
X149873459Y-111734628D01*
X150722815Y-111735370D01*
X151507800Y-111411020D01*
X152108909Y-110810959D01*
X152434628Y-110026541D01*
X152435370Y-109177185D01*
X152111020Y-108392200D01*
X151510959Y-107791091D01*
X150726541Y-107465372D01*
X149877185Y-107464630D01*
X149092200Y-107788980D01*
X148491091Y-108389041D01*
X148165372Y-109173459D01*
X148164630Y-110022815D01*
X147280000Y-110022815D01*
X147280000Y-96340000D01*
X147278882Y-96334380D01*
X147279917Y-96328742D01*
X147274357Y-95953423D01*
X147380919Y-95847046D01*
X147538820Y-95466777D01*
X147539179Y-95055029D01*
X147381942Y-94674485D01*
X147091046Y-94383081D01*
X146710777Y-94225180D01*
X146299029Y-94224821D01*
X145918485Y-94382058D01*
X145627081Y-94672954D01*
X145469180Y-95053223D01*
X145468821Y-95464971D01*
X144164462Y-95464971D01*
X145575933Y-94053500D01*
X146924066Y-94053500D01*
X147952281Y-95081714D01*
X147952283Y-95081717D01*
X148055732Y-95150839D01*
X148220094Y-95260663D01*
X148536000Y-95323500D01*
X149718066Y-95323500D01*
X150041043Y-95646477D01*
X149831890Y-95503569D01*
X149580000Y-95452560D01*
X149198620Y-95452560D01*
X149145905Y-95417337D01*
X148830000Y-95354500D01*
X148514095Y-95417337D01*
X148461380Y-95452560D01*
X148080000Y-95452560D01*
X147844683Y-95496838D01*
X147628559Y-95635910D01*
X147483569Y-95848110D01*
X147432560Y-96100000D01*
X147432560Y-97400000D01*
X147476838Y-97635317D01*
X147537364Y-97729378D01*
X147483569Y-97808110D01*
X147432560Y-98060000D01*
X147432560Y-99360000D01*
X147476838Y-99595317D01*
X147615910Y-99811441D01*
X147828110Y-99956431D01*
X148004500Y-99992151D01*
X148004500Y-105218904D01*
X147964500Y-105420000D01*
X148004500Y-105621096D01*
X148004500Y-105757694D01*
X147913081Y-105848954D01*
X147755180Y-106229223D01*
X147754821Y-106640971D01*
X147912058Y-107021515D01*
X148202954Y-107312919D01*
X148583223Y-107470820D01*
X148994971Y-107471179D01*
X149375515Y-107313942D01*
X149666919Y-107023046D01*
X149824820Y-106642777D01*
X149825179Y-106231029D01*
X149667942Y-105850485D01*
X149655500Y-105838021D01*
X149655500Y-105460005D01*
X149655501Y-105460000D01*
X149651522Y-105439998D01*
X149655500Y-105420000D01*
X149655500Y-99993234D01*
X149815317Y-99963162D01*
X150031441Y-99824090D01*
X150176431Y-99611890D01*
X150183191Y-99578510D01*
X150241673Y-99719699D01*
X150420302Y-99898327D01*
X150653691Y-99995000D01*
X151244250Y-99995000D01*
X151403000Y-99836250D01*
X151403000Y-98837000D01*
X151657000Y-98837000D01*
X151657000Y-99836250D01*
X151815750Y-99995000D01*
X152406309Y-99995000D01*
X152639698Y-99898327D01*
X152818327Y-99719699D01*
X152915000Y-99486310D01*
X152915000Y-98995750D01*
X152756250Y-98837000D01*
X151657000Y-98837000D01*
X151403000Y-98837000D01*
X151383000Y-98837000D01*
X151383000Y-98583000D01*
X151403000Y-98583000D01*
X151403000Y-98563000D01*
X151657000Y-98563000D01*
X151657000Y-98583000D01*
X152756250Y-98583000D01*
X152915000Y-98424250D01*
X152915000Y-97933690D01*
X152827772Y-97723104D01*
X152876431Y-97651890D01*
X152927440Y-97400000D01*
X152927440Y-96100000D01*
X152883162Y-95864683D01*
X152830407Y-95782700D01*
X152875500Y-95556000D01*
X152875500Y-82060005D01*
X152875501Y-82060000D01*
X152812663Y-81744095D01*
X152757735Y-81661890D01*
X152633717Y-81476283D01*
X152633714Y-81476281D01*
X145082515Y-73925081D01*
X145089741Y-73907680D01*
X145090258Y-73314921D01*
X144969563Y-73022815D01*
X148164630Y-73022815D01*
X148488980Y-73807800D01*
X149089041Y-74408909D01*
X149873459Y-74734628D01*
X150722815Y-74735370D01*
X151507800Y-74411020D01*
X152108909Y-73810959D01*
X152434628Y-73026541D01*
X152435370Y-72177185D01*
X152111020Y-71392200D01*
X151510959Y-70791091D01*
X150726541Y-70465372D01*
X149877185Y-70464630D01*
X149092200Y-70788980D01*
X148491091Y-71389041D01*
X148165372Y-72173459D01*
X148164630Y-73022815D01*
X144969563Y-73022815D01*
X144863897Y-72767085D01*
X144445119Y-72347576D01*
X143897680Y-72120259D01*
X143304921Y-72119742D01*
X142757085Y-72346103D01*
X142337576Y-72764881D01*
X142110259Y-73312320D01*
X142109742Y-73905079D01*
X142336103Y-74452915D01*
X142754881Y-74872424D01*
X143302320Y-75099741D01*
X143895079Y-75100258D01*
X143914712Y-75092146D01*
X151224500Y-82401933D01*
X151224500Y-94495066D01*
X150643717Y-93914283D01*
X150375906Y-93735337D01*
X150060000Y-93672500D01*
X148877933Y-93672500D01*
X147849717Y-92644283D01*
X147644095Y-92506890D01*
X148048524Y-92506890D01*
X148218355Y-92916924D01*
X148608642Y-93345183D01*
X149133108Y-93591486D01*
X149363000Y-93470819D01*
X149363000Y-92277000D01*
X149617000Y-92277000D01*
X149617000Y-93470819D01*
X149846892Y-93591486D01*
X150371358Y-93345183D01*
X150761645Y-92916924D01*
X150931476Y-92506890D01*
X150810155Y-92277000D01*
X149617000Y-92277000D01*
X149363000Y-92277000D01*
X148169845Y-92277000D01*
X148048524Y-92506890D01*
X147644095Y-92506890D01*
X147581906Y-92465337D01*
X147266000Y-92402500D01*
X145234000Y-92402500D01*
X144918095Y-92465337D01*
X144650283Y-92644283D01*
X144650281Y-92644286D01*
X142110283Y-95184283D01*
X142110281Y-95184286D01*
X142098067Y-95196500D01*
X140154005Y-95196500D01*
X140154000Y-95196499D01*
X139838094Y-95259337D01*
X139570283Y-95438283D01*
X137538283Y-97470283D01*
X137359337Y-97738094D01*
X137336791Y-97851441D01*
X137296500Y-98054000D01*
X137296500Y-104824067D01*
X134224066Y-107896500D01*
X131097934Y-107896500D01*
X127132686Y-103931252D01*
X127173440Y-103730000D01*
X127173440Y-102030000D01*
X127129162Y-101794683D01*
X126990090Y-101578559D01*
X126777890Y-101433569D01*
X126526000Y-101382560D01*
X124826000Y-101382560D01*
X124590683Y-101426838D01*
X124374559Y-101565910D01*
X124229569Y-101778110D01*
X124207699Y-101886107D01*
X123902924Y-101608355D01*
X123492890Y-101438524D01*
X123263000Y-101559845D01*
X123009000Y-101559845D01*
X122779110Y-101438524D01*
X122369076Y-101608355D01*
X121940817Y-101998642D01*
X121873702Y-102141553D01*
X121646054Y-101800853D01*
X121164285Y-101478946D01*
X120596000Y-101365907D01*
X120027715Y-101478946D01*
X119545946Y-101800853D01*
X119326000Y-102130026D01*
X119106054Y-101800853D01*
X118624285Y-101478946D01*
X118056000Y-101365907D01*
X117487715Y-101478946D01*
X117005946Y-101800853D01*
X116684039Y-102282622D01*
X116571000Y-102850907D01*
X116243882Y-102850907D01*
X116211645Y-102773076D01*
X115821358Y-102344817D01*
X115678447Y-102277702D01*
X116019147Y-102050054D01*
X116341054Y-101568285D01*
X116454093Y-101000000D01*
X116341054Y-100431715D01*
X116019147Y-99949946D01*
X115689974Y-99730000D01*
X116019147Y-99510054D01*
X116341054Y-99028285D01*
X116445981Y-98500783D01*
X118822599Y-100877401D01*
X119069161Y-101042148D01*
X119360000Y-101100000D01*
X127139198Y-101100000D01*
X128726000Y-102686802D01*
X128726000Y-104150000D01*
X128783852Y-104440839D01*
X128948599Y-104687401D01*
X129974965Y-105713767D01*
X129974821Y-105878971D01*
X130132058Y-106259515D01*
X130422954Y-106550919D01*
X130803223Y-106708820D01*
X131214971Y-106709179D01*
X131595515Y-106551942D01*
X131886919Y-106261046D01*
X132044820Y-105880777D01*
X132045179Y-105469029D01*
X131887942Y-105088485D01*
X131597046Y-104797081D01*
X131216777Y-104639180D01*
X131049836Y-104639034D01*
X130246000Y-103835198D01*
X130246000Y-102372000D01*
X130188148Y-102081161D01*
X130023401Y-101834599D01*
X127991401Y-99802599D01*
X127744839Y-99637852D01*
X127454000Y-99580000D01*
X119674802Y-99580000D01*
X116437440Y-96342638D01*
X116437440Y-95070000D01*
X116393162Y-94834683D01*
X116254090Y-94618559D01*
X116041890Y-94473569D01*
X115790000Y-94422560D01*
X114090000Y-94422560D01*
X113854683Y-94466838D01*
X113638559Y-94605910D01*
X113493569Y-94818110D01*
X113442560Y-95070000D01*
X113442560Y-96770000D01*
X113486838Y-97005317D01*
X113625910Y-97221441D01*
X113838110Y-97366431D01*
X113905541Y-97380086D01*
X113860853Y-97409946D01*
X113640535Y-97739676D01*
X113549160Y-97757852D01*
X113302599Y-97922599D01*
X111676599Y-99548599D01*
X111511852Y-99795161D01*
X111454000Y-100086000D01*
X110510000Y-100086000D01*
X110510000Y-91735750D01*
X111765000Y-91735750D01*
X111765000Y-92226310D01*
X111861673Y-92459699D01*
X112040302Y-92638327D01*
X112273691Y-92735000D01*
X112864250Y-92735000D01*
X113023000Y-92576250D01*
X113023000Y-91577000D01*
X111923750Y-91577000D01*
X111765000Y-91735750D01*
X110510000Y-91735750D01*
X110510000Y-83960000D01*
X111072560Y-83960000D01*
X111072560Y-85460000D01*
X111116838Y-85695317D01*
X111255910Y-85911441D01*
X111468110Y-86056431D01*
X111481197Y-86059081D01*
X111268559Y-86195910D01*
X111123569Y-86408110D01*
X111072560Y-86660000D01*
X111072560Y-88160000D01*
X111116838Y-88395317D01*
X111238399Y-88584229D01*
X111085180Y-88953223D01*
X111084821Y-89364971D01*
X111242058Y-89745515D01*
X111532954Y-90036919D01*
X111913223Y-90194820D01*
X112201093Y-90195071D01*
X112040302Y-90261673D01*
X111861673Y-90440301D01*
X111765000Y-90673690D01*
X111765000Y-91164250D01*
X111923750Y-91323000D01*
X113023000Y-91323000D01*
X113023000Y-90323750D01*
X113277000Y-90323750D01*
X113277000Y-91323000D01*
X113297000Y-91323000D01*
X113297000Y-91577000D01*
X113277000Y-91577000D01*
X113277000Y-92576250D01*
X113435750Y-92735000D01*
X114026309Y-92735000D01*
X114259698Y-92638327D01*
X114438327Y-92459699D01*
X114494654Y-92323713D01*
X114496838Y-92335317D01*
X114635910Y-92551441D01*
X114848110Y-92696431D01*
X115100000Y-92747440D01*
X116600000Y-92747440D01*
X116835317Y-92703162D01*
X117051441Y-92564090D01*
X117150000Y-92419844D01*
X117150000Y-94860000D01*
X117207852Y-95150839D01*
X117372599Y-95397401D01*
X119877243Y-97902045D01*
X119972058Y-98131515D01*
X120262954Y-98422919D01*
X120643223Y-98580820D01*
X121054971Y-98581179D01*
X121435515Y-98423942D01*
X121726919Y-98133046D01*
X121884820Y-97752777D01*
X121885179Y-97341029D01*
X121727942Y-96960485D01*
X121437046Y-96669081D01*
X121056777Y-96511180D01*
X120645029Y-96510821D01*
X120638373Y-96513571D01*
X118670000Y-94545198D01*
X118670000Y-92354971D01*
X121144821Y-92354971D01*
X121302058Y-92735515D01*
X121444873Y-92878579D01*
X121442560Y-92890000D01*
X121442560Y-94190000D01*
X121486838Y-94425317D01*
X121625910Y-94641441D01*
X121838110Y-94786431D01*
X122090000Y-94837440D01*
X123590000Y-94837440D01*
X123825317Y-94793162D01*
X124041441Y-94654090D01*
X124186431Y-94441890D01*
X124189081Y-94428803D01*
X124325910Y-94641441D01*
X124538110Y-94786431D01*
X124790000Y-94837440D01*
X125762638Y-94837440D01*
X126440000Y-95514802D01*
X126440000Y-96530000D01*
X126497852Y-96820839D01*
X126662599Y-97067401D01*
X131012000Y-101416802D01*
X131012000Y-101922239D01*
X130895081Y-102038954D01*
X130737180Y-102419223D01*
X130736821Y-102830971D01*
X130894058Y-103211515D01*
X131184954Y-103502919D01*
X131565223Y-103660820D01*
X131976971Y-103661179D01*
X132357515Y-103503942D01*
X132648919Y-103213046D01*
X132806820Y-102832777D01*
X132806913Y-102725750D01*
X133775000Y-102725750D01*
X133775000Y-103316309D01*
X133871673Y-103549698D01*
X134050301Y-103728327D01*
X134283690Y-103825000D01*
X134774250Y-103825000D01*
X134933000Y-103666250D01*
X134933000Y-102567000D01*
X135187000Y-102567000D01*
X135187000Y-103666250D01*
X135345750Y-103825000D01*
X135836310Y-103825000D01*
X136069699Y-103728327D01*
X136248327Y-103549698D01*
X136345000Y-103316309D01*
X136345000Y-102725750D01*
X136186250Y-102567000D01*
X135187000Y-102567000D01*
X134933000Y-102567000D01*
X133933750Y-102567000D01*
X133775000Y-102725750D01*
X132806913Y-102725750D01*
X132807179Y-102421029D01*
X132649942Y-102040485D01*
X132532000Y-101922337D01*
X132532000Y-101102000D01*
X132474148Y-100811161D01*
X132474148Y-100811160D01*
X132309401Y-100564599D01*
X131029773Y-99284971D01*
X131774821Y-99284971D01*
X131932058Y-99665515D01*
X132222954Y-99956919D01*
X132603223Y-100114820D01*
X133014971Y-100115179D01*
X133395515Y-99957942D01*
X133513663Y-99840000D01*
X133762560Y-99840000D01*
X133762560Y-100490000D01*
X133806838Y-100725317D01*
X133945910Y-100941441D01*
X134158110Y-101086431D01*
X134191490Y-101093191D01*
X134050301Y-101151673D01*
X133871673Y-101330302D01*
X133775000Y-101563691D01*
X133775000Y-102154250D01*
X133933750Y-102313000D01*
X134933000Y-102313000D01*
X134933000Y-102293000D01*
X135187000Y-102293000D01*
X135187000Y-102313000D01*
X136186250Y-102313000D01*
X136345000Y-102154250D01*
X136345000Y-101563691D01*
X136248327Y-101330302D01*
X136069699Y-101151673D01*
X135933713Y-101095346D01*
X135945317Y-101093162D01*
X136161441Y-100954090D01*
X136306431Y-100741890D01*
X136357440Y-100490000D01*
X136357440Y-98990000D01*
X136313162Y-98754683D01*
X136174090Y-98538559D01*
X135961890Y-98393569D01*
X135710000Y-98342560D01*
X134513416Y-98342560D01*
X134400000Y-98320000D01*
X133513761Y-98320000D01*
X133397046Y-98203081D01*
X133016777Y-98045180D01*
X132605029Y-98044821D01*
X132224485Y-98202058D01*
X131933081Y-98492954D01*
X131775180Y-98873223D01*
X131774821Y-99284971D01*
X131029773Y-99284971D01*
X127960000Y-96215198D01*
X127960000Y-95200000D01*
X127902148Y-94909161D01*
X127737401Y-94662599D01*
X126937440Y-93862638D01*
X126937440Y-92920000D01*
X130692560Y-92920000D01*
X130692560Y-93920000D01*
X130736838Y-94155317D01*
X130875910Y-94371441D01*
X131088110Y-94516431D01*
X131340000Y-94567440D01*
X132340000Y-94567440D01*
X132575317Y-94523162D01*
X132791441Y-94384090D01*
X132839134Y-94314289D01*
X132875910Y-94371441D01*
X133088110Y-94516431D01*
X133340000Y-94567440D01*
X134340000Y-94567440D01*
X134575317Y-94523162D01*
X134791441Y-94384090D01*
X134839134Y-94314289D01*
X134875910Y-94371441D01*
X135088110Y-94516431D01*
X135340000Y-94567440D01*
X136340000Y-94567440D01*
X136575317Y-94523162D01*
X136791441Y-94384090D01*
X136839134Y-94314289D01*
X136875910Y-94371441D01*
X137088110Y-94516431D01*
X137340000Y-94567440D01*
X138340000Y-94567440D01*
X138575317Y-94523162D01*
X138791441Y-94384090D01*
X138839134Y-94314289D01*
X138875910Y-94371441D01*
X139088110Y-94516431D01*
X139340000Y-94567440D01*
X140340000Y-94567440D01*
X140575317Y-94523162D01*
X140791441Y-94384090D01*
X140839134Y-94314289D01*
X140875910Y-94371441D01*
X141088110Y-94516431D01*
X141340000Y-94567440D01*
X142340000Y-94567440D01*
X142575317Y-94523162D01*
X142791441Y-94384090D01*
X142936431Y-94171890D01*
X142987440Y-93920000D01*
X142987440Y-92920000D01*
X142943162Y-92684683D01*
X142804090Y-92468559D01*
X142591890Y-92323569D01*
X142340000Y-92272560D01*
X141340000Y-92272560D01*
X141104683Y-92316838D01*
X140888559Y-92455910D01*
X140840866Y-92525711D01*
X140804090Y-92468559D01*
X140591890Y-92323569D01*
X140340000Y-92272560D01*
X139340000Y-92272560D01*
X139104683Y-92316838D01*
X138888559Y-92455910D01*
X138840866Y-92525711D01*
X138804090Y-92468559D01*
X138591890Y-92323569D01*
X138340000Y-92272560D01*
X137340000Y-92272560D01*
X137104683Y-92316838D01*
X136888559Y-92455910D01*
X136840866Y-92525711D01*
X136804090Y-92468559D01*
X136591890Y-92323569D01*
X136340000Y-92272560D01*
X135340000Y-92272560D01*
X135104683Y-92316838D01*
X134888559Y-92455910D01*
X134840866Y-92525711D01*
X134804090Y-92468559D01*
X134591890Y-92323569D01*
X134340000Y-92272560D01*
X133340000Y-92272560D01*
X133104683Y-92316838D01*
X132888559Y-92455910D01*
X132840866Y-92525711D01*
X132804090Y-92468559D01*
X132591890Y-92323569D01*
X132340000Y-92272560D01*
X131340000Y-92272560D01*
X131104683Y-92316838D01*
X130888559Y-92455910D01*
X130743569Y-92668110D01*
X130692560Y-92920000D01*
X126937440Y-92920000D01*
X126937440Y-92890000D01*
X126893162Y-92654683D01*
X126754090Y-92438559D01*
X126541890Y-92293569D01*
X126300000Y-92244585D01*
X126300000Y-88710000D01*
X126242148Y-88419161D01*
X126077401Y-88172599D01*
X125565035Y-87660233D01*
X125565179Y-87495029D01*
X125407942Y-87114485D01*
X125117046Y-86823081D01*
X124736777Y-86665180D01*
X124325029Y-86664821D01*
X123944485Y-86822058D01*
X123653081Y-87112954D01*
X123495180Y-87493223D01*
X123494821Y-87904971D01*
X123652058Y-88285515D01*
X123942954Y-88576919D01*
X124323223Y-88734820D01*
X124490164Y-88734966D01*
X124780000Y-89024802D01*
X124780000Y-92244442D01*
X124554683Y-92286838D01*
X124338559Y-92425910D01*
X124193569Y-92638110D01*
X124190919Y-92651197D01*
X124054090Y-92438559D01*
X123841890Y-92293569D01*
X123590000Y-92242560D01*
X123350190Y-92242560D01*
X123215037Y-92107407D01*
X123215179Y-91945029D01*
X123057942Y-91564485D01*
X122767046Y-91273081D01*
X122386777Y-91115180D01*
X121975029Y-91114821D01*
X121594485Y-91272058D01*
X121303081Y-91562954D01*
X121145180Y-91943223D01*
X121144821Y-92354971D01*
X118670000Y-92354971D01*
X118670000Y-86190750D01*
X119670000Y-86190750D01*
X119670000Y-86331310D01*
X119766673Y-86564699D01*
X119945302Y-86743327D01*
X120178691Y-86840000D01*
X120794250Y-86840000D01*
X120953000Y-86681250D01*
X120953000Y-86032000D01*
X121207000Y-86032000D01*
X121207000Y-86681250D01*
X121365750Y-86840000D01*
X121981309Y-86840000D01*
X122214698Y-86743327D01*
X122393327Y-86564699D01*
X122490000Y-86331310D01*
X122490000Y-86190750D01*
X122331250Y-86032000D01*
X121207000Y-86032000D01*
X120953000Y-86032000D01*
X119828750Y-86032000D01*
X119670000Y-86190750D01*
X118670000Y-86190750D01*
X118670000Y-85814802D01*
X119089802Y-85395000D01*
X119704666Y-85395000D01*
X119670000Y-85478690D01*
X119670000Y-85619250D01*
X119828750Y-85778000D01*
X120953000Y-85778000D01*
X120953000Y-85758000D01*
X121207000Y-85758000D01*
X121207000Y-85778000D01*
X122331250Y-85778000D01*
X122490000Y-85619250D01*
X122490000Y-85478690D01*
X122400194Y-85261878D01*
X122451431Y-85186890D01*
X122502440Y-84935000D01*
X122502440Y-84335000D01*
X122462926Y-84125000D01*
X122582317Y-84125000D01*
X122606838Y-84255317D01*
X122745910Y-84471441D01*
X122958110Y-84616431D01*
X123210000Y-84667440D01*
X124710000Y-84667440D01*
X124945317Y-84623162D01*
X125161441Y-84484090D01*
X125306431Y-84271890D01*
X125309081Y-84258803D01*
X125445910Y-84471441D01*
X125658110Y-84616431D01*
X125910000Y-84667440D01*
X127410000Y-84667440D01*
X127645317Y-84623162D01*
X127861441Y-84484090D01*
X128006431Y-84271890D01*
X128057440Y-84020000D01*
X128057440Y-82720000D01*
X128055559Y-82710000D01*
X136362560Y-82710000D01*
X136362560Y-84210000D01*
X136406838Y-84445317D01*
X136545910Y-84661441D01*
X136758110Y-84806431D01*
X136771197Y-84809081D01*
X136558559Y-84945910D01*
X136413569Y-85158110D01*
X136362560Y-85410000D01*
X136362560Y-86910000D01*
X136406838Y-87145317D01*
X136545910Y-87361441D01*
X136758110Y-87506431D01*
X136786034Y-87512086D01*
X136737081Y-87560954D01*
X136579180Y-87941223D01*
X136578821Y-88352971D01*
X136736058Y-88733515D01*
X137026954Y-89024919D01*
X137407223Y-89182820D01*
X137648228Y-89183030D01*
X139732599Y-91267401D01*
X139979160Y-91432148D01*
X140027414Y-91441746D01*
X140270000Y-91490000D01*
X145006239Y-91490000D01*
X145122954Y-91606919D01*
X145503223Y-91764820D01*
X145914971Y-91765179D01*
X146295515Y-91607942D01*
X146586919Y-91317046D01*
X146744820Y-90936777D01*
X146745179Y-90525029D01*
X146587942Y-90144485D01*
X146297046Y-89853081D01*
X145916777Y-89695180D01*
X145505029Y-89694821D01*
X145124485Y-89852058D01*
X145006337Y-89970000D01*
X140584802Y-89970000D01*
X138649099Y-88034297D01*
X138649179Y-87943029D01*
X138491942Y-87562485D01*
X138458931Y-87529417D01*
X138545317Y-87513162D01*
X138761441Y-87374090D01*
X138906431Y-87161890D01*
X138957440Y-86910000D01*
X138957440Y-85410000D01*
X138913162Y-85174683D01*
X138774090Y-84958559D01*
X138561890Y-84813569D01*
X138548803Y-84810919D01*
X138761441Y-84674090D01*
X138906431Y-84461890D01*
X138955010Y-84222000D01*
X139250000Y-84222000D01*
X139541605Y-84163996D01*
X139788815Y-83998815D01*
X140650191Y-83137440D01*
X140989810Y-83137440D01*
X145461184Y-87608815D01*
X145708395Y-87773996D01*
X146000000Y-87832000D01*
X147992560Y-87832000D01*
X147992560Y-87920000D01*
X148036838Y-88155317D01*
X148175910Y-88371441D01*
X148388110Y-88516431D01*
X148455541Y-88530086D01*
X148410853Y-88559946D01*
X148088946Y-89041715D01*
X147975907Y-89610000D01*
X148088946Y-90178285D01*
X148410853Y-90660054D01*
X148751553Y-90887702D01*
X148608642Y-90954817D01*
X148218355Y-91383076D01*
X148048524Y-91793110D01*
X148169845Y-92023000D01*
X149363000Y-92023000D01*
X149363000Y-92003000D01*
X149617000Y-92003000D01*
X149617000Y-92023000D01*
X150810155Y-92023000D01*
X150931476Y-91793110D01*
X150761645Y-91383076D01*
X150371358Y-90954817D01*
X150228447Y-90887702D01*
X150569147Y-90660054D01*
X150891054Y-90178285D01*
X151004093Y-89610000D01*
X150891054Y-89041715D01*
X150569147Y-88559946D01*
X150527548Y-88532150D01*
X150575317Y-88523162D01*
X150791441Y-88384090D01*
X150936431Y-88171890D01*
X150987440Y-87920000D01*
X150987440Y-86220000D01*
X150943162Y-85984683D01*
X150804090Y-85768559D01*
X150591890Y-85623569D01*
X150340000Y-85572560D01*
X148640000Y-85572560D01*
X148404683Y-85616838D01*
X148188559Y-85755910D01*
X148043569Y-85968110D01*
X147992560Y-86220000D01*
X147992560Y-86308000D01*
X146315631Y-86308000D01*
X142067440Y-82059810D01*
X142067440Y-81290000D01*
X142023162Y-81054683D01*
X141884090Y-80838559D01*
X141744245Y-80743007D01*
X141798430Y-80688822D01*
X141682737Y-80573129D01*
X141908164Y-80523617D01*
X142067807Y-80058964D01*
X142037482Y-79568587D01*
X141908164Y-79256383D01*
X141682735Y-79206870D01*
X140999605Y-79890000D01*
X141013748Y-79904143D01*
X140834143Y-80083748D01*
X140820000Y-80069605D01*
X140805858Y-80083748D01*
X140626253Y-79904143D01*
X140640395Y-79890000D01*
X139957265Y-79206870D01*
X139731836Y-79256383D01*
X139572193Y-79721036D01*
X139602518Y-80211413D01*
X139731836Y-80523617D01*
X139957263Y-80573129D01*
X139841570Y-80688822D01*
X139896397Y-80743649D01*
X139768559Y-80825910D01*
X139623569Y-81038110D01*
X139572560Y-81290000D01*
X139572560Y-82059809D01*
X138951886Y-82680484D01*
X138913162Y-82474683D01*
X138774090Y-82258559D01*
X138561890Y-82113569D01*
X138310000Y-82062560D01*
X137010000Y-82062560D01*
X136774683Y-82106838D01*
X136558559Y-82245910D01*
X136413569Y-82458110D01*
X136362560Y-82710000D01*
X128055559Y-82710000D01*
X128013162Y-82484683D01*
X127874090Y-82268559D01*
X127661890Y-82123569D01*
X127420000Y-82074585D01*
X127420000Y-81984409D01*
X127591441Y-81874090D01*
X127736431Y-81661890D01*
X127787440Y-81410000D01*
X127787440Y-80919319D01*
X127988110Y-81056431D01*
X128240000Y-81107440D01*
X129140000Y-81107440D01*
X129375317Y-81063162D01*
X129591441Y-80924090D01*
X129736431Y-80711890D01*
X129787440Y-80460000D01*
X129787440Y-79660000D01*
X129743162Y-79424683D01*
X129604090Y-79208559D01*
X129450000Y-79103274D01*
X129450000Y-79027265D01*
X140136870Y-79027265D01*
X140820000Y-79710395D01*
X141503130Y-79027265D01*
X141453617Y-78801836D01*
X140988964Y-78642193D01*
X140498587Y-78672518D01*
X140186383Y-78801836D01*
X140136870Y-79027265D01*
X129450000Y-79027265D01*
X129450000Y-78374595D01*
X129635515Y-78297942D01*
X129926919Y-78007046D01*
X130084820Y-77626777D01*
X130085179Y-77215029D01*
X129927942Y-76834485D01*
X129637046Y-76543081D01*
X129256777Y-76385180D01*
X128845029Y-76384821D01*
X128464485Y-76542058D01*
X128173081Y-76832954D01*
X128015180Y-77213223D01*
X128014992Y-77428543D01*
X127987852Y-77469161D01*
X127930000Y-77760000D01*
X127930000Y-79104895D01*
X127788559Y-79195910D01*
X127701936Y-79322686D01*
X127616250Y-79237000D01*
X126817000Y-79237000D01*
X126817000Y-79257000D01*
X126563000Y-79257000D01*
X126563000Y-79237000D01*
X125763750Y-79237000D01*
X125605000Y-79395750D01*
X125605000Y-79636310D01*
X125701673Y-79869699D01*
X125880302Y-80048327D01*
X125916747Y-80063423D01*
X125788559Y-80145910D01*
X125643569Y-80358110D01*
X125592560Y-80610000D01*
X125592560Y-81410000D01*
X125636838Y-81645317D01*
X125775910Y-81861441D01*
X125900000Y-81946228D01*
X125900000Y-82074442D01*
X125674683Y-82116838D01*
X125458559Y-82255910D01*
X125313569Y-82468110D01*
X125310919Y-82481197D01*
X125174090Y-82268559D01*
X124961890Y-82123569D01*
X124710000Y-82072560D01*
X123210000Y-82072560D01*
X122974683Y-82116838D01*
X122758559Y-82255910D01*
X122613569Y-82468110D01*
X122585848Y-82605000D01*
X122459914Y-82605000D01*
X122502440Y-82395000D01*
X122502440Y-81795000D01*
X122458162Y-81559683D01*
X122319090Y-81343559D01*
X122106890Y-81198569D01*
X121855000Y-81147560D01*
X120305000Y-81147560D01*
X120069683Y-81191838D01*
X119853559Y-81330910D01*
X119708569Y-81543110D01*
X119657560Y-81795000D01*
X119657560Y-82395000D01*
X119701838Y-82630317D01*
X119765678Y-82729528D01*
X119708569Y-82813110D01*
X119657560Y-83065000D01*
X119657560Y-83665000D01*
X119697074Y-83875000D01*
X118775000Y-83875000D01*
X118484161Y-83932852D01*
X118237599Y-84097599D01*
X117372599Y-84962599D01*
X117207852Y-85209161D01*
X117150000Y-85500000D01*
X117150000Y-90482067D01*
X117064090Y-90348559D01*
X116851890Y-90203569D01*
X116600000Y-90152560D01*
X115100000Y-90152560D01*
X114864683Y-90196838D01*
X114648559Y-90335910D01*
X114503569Y-90548110D01*
X114496809Y-90581490D01*
X114438327Y-90440301D01*
X114259698Y-90261673D01*
X114026309Y-90165000D01*
X113435750Y-90165000D01*
X113277000Y-90323750D01*
X113023000Y-90323750D01*
X112864250Y-90165000D01*
X112398010Y-90165000D01*
X112705515Y-90037942D01*
X112996919Y-89747046D01*
X113154820Y-89366777D01*
X113155179Y-88955029D01*
X113088844Y-88794486D01*
X113255317Y-88763162D01*
X113471441Y-88624090D01*
X113616431Y-88411890D01*
X113667440Y-88160000D01*
X113667440Y-86660000D01*
X113623162Y-86424683D01*
X113484090Y-86208559D01*
X113271890Y-86063569D01*
X113258803Y-86060919D01*
X113471441Y-85924090D01*
X113616431Y-85711890D01*
X113667440Y-85460000D01*
X113667440Y-84487362D01*
X114029802Y-84125000D01*
X114300086Y-84125000D01*
X114257560Y-84335000D01*
X114257560Y-84935000D01*
X114301838Y-85170317D01*
X114365678Y-85269528D01*
X114308569Y-85353110D01*
X114257560Y-85605000D01*
X114257560Y-86205000D01*
X114301838Y-86440317D01*
X114440910Y-86656441D01*
X114653110Y-86801431D01*
X114905000Y-86852440D01*
X116455000Y-86852440D01*
X116690317Y-86808162D01*
X116906441Y-86669090D01*
X117051431Y-86456890D01*
X117102440Y-86205000D01*
X117102440Y-85605000D01*
X117058162Y-85369683D01*
X116994322Y-85270472D01*
X117051431Y-85186890D01*
X117102440Y-84935000D01*
X117102440Y-84335000D01*
X117058162Y-84099683D01*
X116994322Y-84000472D01*
X117051431Y-83916890D01*
X117102440Y-83665000D01*
X117102440Y-83065000D01*
X117058162Y-82829683D01*
X116994322Y-82730472D01*
X117051431Y-82646890D01*
X117102440Y-82395000D01*
X117102440Y-81795000D01*
X117058162Y-81559683D01*
X116919090Y-81343559D01*
X116706890Y-81198569D01*
X116505500Y-81157787D01*
X116505500Y-77171036D01*
X119342193Y-77171036D01*
X119372518Y-77661413D01*
X119501836Y-77973617D01*
X119727265Y-78023130D01*
X120410395Y-77340000D01*
X119727265Y-76656870D01*
X119501836Y-76706383D01*
X119342193Y-77171036D01*
X116505500Y-77171036D01*
X116505500Y-76441934D01*
X117271934Y-75675500D01*
X121448066Y-75675500D01*
X121764500Y-75991934D01*
X121764500Y-76134991D01*
X121754683Y-76136838D01*
X121538559Y-76275910D01*
X121443007Y-76415755D01*
X121388822Y-76361570D01*
X121273129Y-76477263D01*
X121223617Y-76251836D01*
X120758964Y-76092193D01*
X120268587Y-76122518D01*
X119956383Y-76251836D01*
X119906870Y-76477265D01*
X120590000Y-77160395D01*
X120604143Y-77146253D01*
X120783748Y-77325858D01*
X120769605Y-77340000D01*
X120783748Y-77354143D01*
X120604143Y-77533748D01*
X120590000Y-77519605D01*
X119906870Y-78202735D01*
X119956383Y-78428164D01*
X120421036Y-78587807D01*
X120911413Y-78557482D01*
X121223617Y-78428164D01*
X121273129Y-78202737D01*
X121388822Y-78318430D01*
X121443649Y-78263603D01*
X121525910Y-78391441D01*
X121738110Y-78536431D01*
X121990000Y-78587440D01*
X123190000Y-78587440D01*
X123209929Y-78583690D01*
X125605000Y-78583690D01*
X125605000Y-78824250D01*
X125763750Y-78983000D01*
X126563000Y-78983000D01*
X126563000Y-78233750D01*
X126817000Y-78233750D01*
X126817000Y-78983000D01*
X127616250Y-78983000D01*
X127775000Y-78824250D01*
X127775000Y-78583690D01*
X127678327Y-78350301D01*
X127499698Y-78171673D01*
X127266309Y-78075000D01*
X126975750Y-78075000D01*
X126817000Y-78233750D01*
X126563000Y-78233750D01*
X126404250Y-78075000D01*
X126113691Y-78075000D01*
X125880302Y-78171673D01*
X125701673Y-78350301D01*
X125605000Y-78583690D01*
X123209929Y-78583690D01*
X123425317Y-78543162D01*
X123641441Y-78404090D01*
X123786431Y-78191890D01*
X123837440Y-77940000D01*
X123837440Y-76740000D01*
X123793162Y-76504683D01*
X123654090Y-76288559D01*
X123441890Y-76143569D01*
X123415500Y-76138225D01*
X123415500Y-75650005D01*
X123415501Y-75650000D01*
X123415500Y-75649995D01*
X123415500Y-73777440D01*
X123420000Y-73777440D01*
X123655317Y-73733162D01*
X123871441Y-73594090D01*
X124016431Y-73381890D01*
X124067440Y-73130000D01*
X124067440Y-73105500D01*
X126688066Y-73105500D01*
X126857560Y-73274994D01*
X126857560Y-74465000D01*
X126901838Y-74700317D01*
X127040910Y-74916441D01*
X127253110Y-75061431D01*
X127505000Y-75112440D01*
X129215000Y-75112440D01*
X129450317Y-75068162D01*
X129666441Y-74929090D01*
X129811431Y-74716890D01*
X129862440Y-74465000D01*
X129862440Y-74435500D01*
X132168907Y-74435500D01*
X132176103Y-74452915D01*
X132594881Y-74872424D01*
X132614500Y-74880571D01*
X132614500Y-75242560D01*
X131690000Y-75242560D01*
X131454683Y-75286838D01*
X131238559Y-75425910D01*
X131093569Y-75638110D01*
X131042560Y-75890000D01*
X131042560Y-77690000D01*
X131086838Y-77925317D01*
X131225910Y-78141441D01*
X131438110Y-78286431D01*
X131690000Y-78337440D01*
X135190000Y-78337440D01*
X135425317Y-78293162D01*
X135641441Y-78154090D01*
X135786431Y-77941890D01*
X135837440Y-77690000D01*
X135837440Y-75890000D01*
X136042560Y-75890000D01*
X136042560Y-77690000D01*
X136086838Y-77925317D01*
X136225910Y-78141441D01*
X136438110Y-78286431D01*
X136690000Y-78337440D01*
X140190000Y-78337440D01*
X140425317Y-78293162D01*
X140641441Y-78154090D01*
X140786431Y-77941890D01*
X140837440Y-77690000D01*
X140837440Y-75890000D01*
X140793162Y-75654683D01*
X140654090Y-75438559D01*
X140441890Y-75293569D01*
X140190000Y-75242560D01*
X139287287Y-75242560D01*
X139286197Y-74905596D01*
X139362915Y-74873897D01*
X139782424Y-74455119D01*
X140009741Y-73907680D01*
X140010258Y-73314921D01*
X139783897Y-72767085D01*
X139365119Y-72347576D01*
X138817680Y-72120259D01*
X138224921Y-72119742D01*
X137677085Y-72346103D01*
X137257576Y-72764881D01*
X137030259Y-73312320D01*
X137029742Y-73905079D01*
X137256103Y-74452915D01*
X137674881Y-74872424D01*
X137758000Y-74906938D01*
X137758000Y-75242560D01*
X136690000Y-75242560D01*
X136454683Y-75286838D01*
X136238559Y-75425910D01*
X136093569Y-75638110D01*
X136042560Y-75890000D01*
X135837440Y-75890000D01*
X135793162Y-75654683D01*
X135654090Y-75438559D01*
X135441890Y-75293569D01*
X135190000Y-75242560D01*
X134270654Y-75242560D01*
X134269509Y-74879436D01*
X134282915Y-74873897D01*
X134702424Y-74455119D01*
X134929741Y-73907680D01*
X134930258Y-73314921D01*
X134703897Y-72767085D01*
X134285119Y-72347576D01*
X133737680Y-72120259D01*
X133144921Y-72119742D01*
X132597085Y-72346103D01*
X132177576Y-72764881D01*
X132169429Y-72784500D01*
X129862440Y-72784500D01*
X129862440Y-72755000D01*
X129818162Y-72519683D01*
X129679090Y-72303559D01*
X129466890Y-72158569D01*
X129215000Y-72107560D01*
X128024994Y-72107560D01*
X127613717Y-71696283D01*
X127345906Y-71517337D01*
X127030000Y-71454500D01*
X124067440Y-71454500D01*
X124067440Y-71430000D01*
X124023162Y-71194683D01*
X123884090Y-70978559D01*
X123671890Y-70833569D01*
X123420000Y-70782560D01*
X121720000Y-70782560D01*
X121484683Y-70826838D01*
X121268559Y-70965910D01*
X121123569Y-71178110D01*
X121101699Y-71286107D01*
X120796924Y-71008355D01*
X120386890Y-70838524D01*
X120157000Y-70959845D01*
X120157000Y-72153000D01*
X120177000Y-72153000D01*
X120177000Y-72407000D01*
X120157000Y-72407000D01*
X120157000Y-73600155D01*
X120386890Y-73721476D01*
X120796924Y-73551645D01*
X121099937Y-73275499D01*
X121116838Y-73365317D01*
X121255910Y-73581441D01*
X121468110Y-73726431D01*
X121720000Y-73777440D01*
X121764500Y-73777440D01*
X121764500Y-74024500D01*
X116930005Y-74024500D01*
X116930000Y-74024499D01*
X116614094Y-74087337D01*
X116346283Y-74266283D01*
X115096283Y-75516283D01*
X114917337Y-75784094D01*
X114881173Y-75965906D01*
X114854500Y-76100000D01*
X114854500Y-81157062D01*
X114669683Y-81191838D01*
X114453559Y-81330910D01*
X114308569Y-81543110D01*
X114257560Y-81795000D01*
X114257560Y-82395000D01*
X114297074Y-82605000D01*
X113715000Y-82605000D01*
X113424160Y-82662852D01*
X113177599Y-82827599D01*
X112692638Y-83312560D01*
X111720000Y-83312560D01*
X111484683Y-83356838D01*
X111268559Y-83495910D01*
X111123569Y-83708110D01*
X111072560Y-83960000D01*
X110510000Y-83960000D01*
X110510000Y-73122815D01*
X111164630Y-73122815D01*
X111488980Y-73907800D01*
X112089041Y-74508909D01*
X112873459Y-74834628D01*
X113722815Y-74835370D01*
X114507800Y-74511020D01*
X115108909Y-73910959D01*
X115434628Y-73126541D01*
X115435055Y-72636892D01*
X118588514Y-72636892D01*
X118834817Y-73161358D01*
X119263076Y-73551645D01*
X119673110Y-73721476D01*
X119903000Y-73600155D01*
X119903000Y-72407000D01*
X118709181Y-72407000D01*
X118588514Y-72636892D01*
X115435055Y-72636892D01*
X115435370Y-72277185D01*
X115289069Y-71923108D01*
X118588514Y-71923108D01*
X118709181Y-72153000D01*
X119903000Y-72153000D01*
X119903000Y-70959845D01*
X119673110Y-70838524D01*
X119263076Y-71008355D01*
X118834817Y-71398642D01*
X118588514Y-71923108D01*
X115289069Y-71923108D01*
X115111020Y-71492200D01*
X114510959Y-70891091D01*
X113726541Y-70565372D01*
X112877185Y-70564630D01*
X112092200Y-70888980D01*
X111491091Y-71489041D01*
X111165372Y-72273459D01*
X111164630Y-73122815D01*
X110510000Y-73122815D01*
X110510000Y-70310000D01*
X153090000Y-70310000D01*
X153090000Y-112890000D01*
X153090000Y-112890000D01*
G37*
X153090000Y-112890000D02*
X110510000Y-112890000D01*
X110510000Y-110022815D01*
X111164630Y-110022815D01*
X111488980Y-110807800D01*
X112089041Y-111408909D01*
X112873459Y-111734628D01*
X113722815Y-111735370D01*
X114507800Y-111411020D01*
X115108909Y-110810959D01*
X115434628Y-110026541D01*
X115435370Y-109177185D01*
X115111020Y-108392200D01*
X114510959Y-107791091D01*
X113726541Y-107465372D01*
X112877185Y-107464630D01*
X112092200Y-107788980D01*
X111491091Y-108389041D01*
X111165372Y-109173459D01*
X111164630Y-110022815D01*
X110510000Y-110022815D01*
X110510000Y-100086000D01*
X111454000Y-100086000D01*
X111454000Y-104404000D01*
X111511852Y-104694839D01*
X111676599Y-104941401D01*
X114978599Y-108243401D01*
X115225160Y-108408148D01*
X115516000Y-108466000D01*
X120146239Y-108466000D01*
X120262954Y-108582919D01*
X120643223Y-108740820D01*
X121054971Y-108741179D01*
X121435515Y-108583942D01*
X121726919Y-108293046D01*
X121884820Y-107912777D01*
X121885179Y-107501029D01*
X121727942Y-107120485D01*
X121437046Y-106829081D01*
X121056777Y-106671180D01*
X120645029Y-106670821D01*
X120264485Y-106828058D01*
X120146337Y-106946000D01*
X115830802Y-106946000D01*
X112974000Y-104089198D01*
X112974000Y-103896890D01*
X113498524Y-103896890D01*
X113668355Y-104306924D01*
X114058642Y-104735183D01*
X114583108Y-104981486D01*
X114813000Y-104860819D01*
X114813000Y-103667000D01*
X115067000Y-103667000D01*
X115067000Y-104860819D01*
X115296892Y-104981486D01*
X115821358Y-104735183D01*
X116211645Y-104306924D01*
X116381476Y-103896890D01*
X116260155Y-103667000D01*
X115067000Y-103667000D01*
X114813000Y-103667000D01*
X113619845Y-103667000D01*
X113498524Y-103896890D01*
X112974000Y-103896890D01*
X112974000Y-100400802D01*
X113863188Y-99511614D01*
X114190026Y-99730000D01*
X113860853Y-99949946D01*
X113538946Y-100431715D01*
X113425907Y-101000000D01*
X113538946Y-101568285D01*
X113860853Y-102050054D01*
X114201553Y-102277702D01*
X114058642Y-102344817D01*
X113668355Y-102773076D01*
X113498524Y-103183110D01*
X113619845Y-103413000D01*
X114813000Y-103413000D01*
X114813000Y-103393000D01*
X115067000Y-103393000D01*
X115067000Y-103413000D01*
X116260155Y-103413000D01*
X116381476Y-103183110D01*
X116243882Y-102850907D01*
X116571000Y-102850907D01*
X116571000Y-102909093D01*
X116684039Y-103477378D01*
X117005946Y-103959147D01*
X117487715Y-104281054D01*
X118056000Y-104394093D01*
X118624285Y-104281054D01*
X119106054Y-103959147D01*
X119326000Y-103629974D01*
X119545946Y-103959147D01*
X119836000Y-104152954D01*
X119836000Y-104912000D01*
X119893852Y-105202839D01*
X120058599Y-105449401D01*
X124132965Y-109523767D01*
X124132821Y-109688971D01*
X124290058Y-110069515D01*
X124580954Y-110360919D01*
X124961223Y-110518820D01*
X125372971Y-110519179D01*
X125753515Y-110361942D01*
X126044919Y-110071046D01*
X126202820Y-109690777D01*
X126203179Y-109279029D01*
X126045942Y-108898485D01*
X125755046Y-108607081D01*
X125374777Y-108449180D01*
X125207836Y-108449034D01*
X121356000Y-104597198D01*
X121356000Y-104152954D01*
X121646054Y-103959147D01*
X121873702Y-103618447D01*
X121940817Y-103761358D01*
X122369076Y-104151645D01*
X122779110Y-104321476D01*
X123009000Y-104200155D01*
X123009000Y-103007000D01*
X122989000Y-103007000D01*
X122989000Y-102753000D01*
X123009000Y-102753000D01*
X123009000Y-101559845D01*
X123263000Y-101559845D01*
X123263000Y-102753000D01*
X123283000Y-102753000D01*
X123283000Y-103007000D01*
X123263000Y-103007000D01*
X123263000Y-104200155D01*
X123492890Y-104321476D01*
X123902924Y-104151645D01*
X124205937Y-103875499D01*
X124222838Y-103965317D01*
X124361910Y-104181441D01*
X124574110Y-104326431D01*
X124826000Y-104377440D01*
X125244006Y-104377440D01*
X130172283Y-109305717D01*
X130440094Y-109484663D01*
X130756000Y-109547501D01*
X130756005Y-109547500D01*
X134566000Y-109547500D01*
X134881906Y-109484663D01*
X135149717Y-109305717D01*
X138705714Y-105749719D01*
X138705717Y-105749717D01*
X138884663Y-105481905D01*
X138947500Y-105166000D01*
X138947500Y-104084971D01*
X139334821Y-104084971D01*
X139492058Y-104465515D01*
X139782954Y-104756919D01*
X140163223Y-104914820D01*
X140574971Y-104915179D01*
X140955515Y-104757942D01*
X141246919Y-104467046D01*
X141404820Y-104086777D01*
X141405179Y-103675029D01*
X141247942Y-103294485D01*
X141130000Y-103176337D01*
X141130000Y-103164802D01*
X141254802Y-103040000D01*
X143144442Y-103040000D01*
X143186838Y-103265317D01*
X143325910Y-103481441D01*
X143538110Y-103626431D01*
X143790000Y-103677440D01*
X145090000Y-103677440D01*
X145325317Y-103633162D01*
X145541441Y-103494090D01*
X145686431Y-103281890D01*
X145737440Y-103030000D01*
X145737440Y-101530000D01*
X145693162Y-101294683D01*
X145554090Y-101078559D01*
X145341890Y-100933569D01*
X145328803Y-100930919D01*
X145541441Y-100794090D01*
X145686431Y-100581890D01*
X145737440Y-100330000D01*
X145737440Y-98830000D01*
X145693162Y-98594683D01*
X145554090Y-98378559D01*
X145341890Y-98233569D01*
X145090000Y-98182560D01*
X143790000Y-98182560D01*
X143554683Y-98226838D01*
X143338559Y-98365910D01*
X143193569Y-98578110D01*
X143144990Y-98818000D01*
X141930000Y-98818000D01*
X141652376Y-98873223D01*
X141638395Y-98876004D01*
X141391185Y-99041185D01*
X141381407Y-99050963D01*
X141219029Y-99050821D01*
X140838485Y-99208058D01*
X140547081Y-99498954D01*
X140389180Y-99879223D01*
X140388821Y-100290971D01*
X140546058Y-100671515D01*
X140836954Y-100962919D01*
X141217223Y-101120820D01*
X141628971Y-101121179D01*
X142009515Y-100963942D01*
X142300919Y-100673046D01*
X142438381Y-100342000D01*
X143144818Y-100342000D01*
X143186838Y-100565317D01*
X143325910Y-100781441D01*
X143538110Y-100926431D01*
X143551197Y-100929081D01*
X143338559Y-101065910D01*
X143193569Y-101278110D01*
X143144585Y-101520000D01*
X140940000Y-101520000D01*
X140649161Y-101577852D01*
X140402599Y-101742599D01*
X139832599Y-102312599D01*
X139667852Y-102559161D01*
X139610000Y-102850000D01*
X139610000Y-103176239D01*
X139493081Y-103292954D01*
X139335180Y-103673223D01*
X139334821Y-104084971D01*
X138947500Y-104084971D01*
X138947500Y-98395934D01*
X140495934Y-96847500D01*
X142440000Y-96847500D01*
X142755906Y-96784663D01*
X143023717Y-96605717D01*
X143277714Y-96351719D01*
X143277717Y-96351717D01*
X144164462Y-95464971D01*
X145468821Y-95464971D01*
X145626058Y-95845515D01*
X145754497Y-95974178D01*
X145760000Y-96345656D01*
X145760000Y-110810000D01*
X145765294Y-110836617D01*
X145725180Y-110933223D01*
X145724821Y-111344971D01*
X145882058Y-111725515D01*
X146172954Y-112016919D01*
X146553223Y-112174820D01*
X146964971Y-112175179D01*
X147345515Y-112017942D01*
X147636919Y-111727046D01*
X147794820Y-111346777D01*
X147795179Y-110935029D01*
X147637942Y-110554485D01*
X147347046Y-110263081D01*
X147280000Y-110235241D01*
X147280000Y-110022815D01*
X148164630Y-110022815D01*
X148488980Y-110807800D01*
X149089041Y-111408909D01*
X149873459Y-111734628D01*
X150722815Y-111735370D01*
X151507800Y-111411020D01*
X152108909Y-110810959D01*
X152434628Y-110026541D01*
X152435370Y-109177185D01*
X152111020Y-108392200D01*
X151510959Y-107791091D01*
X150726541Y-107465372D01*
X149877185Y-107464630D01*
X149092200Y-107788980D01*
X148491091Y-108389041D01*
X148165372Y-109173459D01*
X148164630Y-110022815D01*
X147280000Y-110022815D01*
X147280000Y-96340000D01*
X147278882Y-96334380D01*
X147279917Y-96328742D01*
X147274357Y-95953423D01*
X147380919Y-95847046D01*
X147538820Y-95466777D01*
X147539179Y-95055029D01*
X147381942Y-94674485D01*
X147091046Y-94383081D01*
X146710777Y-94225180D01*
X146299029Y-94224821D01*
X145918485Y-94382058D01*
X145627081Y-94672954D01*
X145469180Y-95053223D01*
X145468821Y-95464971D01*
X144164462Y-95464971D01*
X145575933Y-94053500D01*
X146924066Y-94053500D01*
X147952281Y-95081714D01*
X147952283Y-95081717D01*
X148055732Y-95150839D01*
X148220094Y-95260663D01*
X148536000Y-95323500D01*
X149718066Y-95323500D01*
X150041043Y-95646477D01*
X149831890Y-95503569D01*
X149580000Y-95452560D01*
X149198620Y-95452560D01*
X149145905Y-95417337D01*
X148830000Y-95354500D01*
X148514095Y-95417337D01*
X148461380Y-95452560D01*
X148080000Y-95452560D01*
X147844683Y-95496838D01*
X147628559Y-95635910D01*
X147483569Y-95848110D01*
X147432560Y-96100000D01*
X147432560Y-97400000D01*
X147476838Y-97635317D01*
X147537364Y-97729378D01*
X147483569Y-97808110D01*
X147432560Y-98060000D01*
X147432560Y-99360000D01*
X147476838Y-99595317D01*
X147615910Y-99811441D01*
X147828110Y-99956431D01*
X148004500Y-99992151D01*
X148004500Y-105218904D01*
X147964500Y-105420000D01*
X148004500Y-105621096D01*
X148004500Y-105757694D01*
X147913081Y-105848954D01*
X147755180Y-106229223D01*
X147754821Y-106640971D01*
X147912058Y-107021515D01*
X148202954Y-107312919D01*
X148583223Y-107470820D01*
X148994971Y-107471179D01*
X149375515Y-107313942D01*
X149666919Y-107023046D01*
X149824820Y-106642777D01*
X149825179Y-106231029D01*
X149667942Y-105850485D01*
X149655500Y-105838021D01*
X149655500Y-105460005D01*
X149655501Y-105460000D01*
X149651522Y-105439998D01*
X149655500Y-105420000D01*
X149655500Y-99993234D01*
X149815317Y-99963162D01*
X150031441Y-99824090D01*
X150176431Y-99611890D01*
X150183191Y-99578510D01*
X150241673Y-99719699D01*
X150420302Y-99898327D01*
X150653691Y-99995000D01*
X151244250Y-99995000D01*
X151403000Y-99836250D01*
X151403000Y-98837000D01*
X151657000Y-98837000D01*
X151657000Y-99836250D01*
X151815750Y-99995000D01*
X152406309Y-99995000D01*
X152639698Y-99898327D01*
X152818327Y-99719699D01*
X152915000Y-99486310D01*
X152915000Y-98995750D01*
X152756250Y-98837000D01*
X151657000Y-98837000D01*
X151403000Y-98837000D01*
X151383000Y-98837000D01*
X151383000Y-98583000D01*
X151403000Y-98583000D01*
X151403000Y-98563000D01*
X151657000Y-98563000D01*
X151657000Y-98583000D01*
X152756250Y-98583000D01*
X152915000Y-98424250D01*
X152915000Y-97933690D01*
X152827772Y-97723104D01*
X152876431Y-97651890D01*
X152927440Y-97400000D01*
X152927440Y-96100000D01*
X152883162Y-95864683D01*
X152830407Y-95782700D01*
X152875500Y-95556000D01*
X152875500Y-82060005D01*
X152875501Y-82060000D01*
X152812663Y-81744095D01*
X152757735Y-81661890D01*
X152633717Y-81476283D01*
X152633714Y-81476281D01*
X145082515Y-73925081D01*
X145089741Y-73907680D01*
X145090258Y-73314921D01*
X144969563Y-73022815D01*
X148164630Y-73022815D01*
X148488980Y-73807800D01*
X149089041Y-74408909D01*
X149873459Y-74734628D01*
X150722815Y-74735370D01*
X151507800Y-74411020D01*
X152108909Y-73810959D01*
X152434628Y-73026541D01*
X152435370Y-72177185D01*
X152111020Y-71392200D01*
X151510959Y-70791091D01*
X150726541Y-70465372D01*
X149877185Y-70464630D01*
X149092200Y-70788980D01*
X148491091Y-71389041D01*
X148165372Y-72173459D01*
X148164630Y-73022815D01*
X144969563Y-73022815D01*
X144863897Y-72767085D01*
X144445119Y-72347576D01*
X143897680Y-72120259D01*
X143304921Y-72119742D01*
X142757085Y-72346103D01*
X142337576Y-72764881D01*
X142110259Y-73312320D01*
X142109742Y-73905079D01*
X142336103Y-74452915D01*
X142754881Y-74872424D01*
X143302320Y-75099741D01*
X143895079Y-75100258D01*
X143914712Y-75092146D01*
X151224500Y-82401933D01*
X151224500Y-94495066D01*
X150643717Y-93914283D01*
X150375906Y-93735337D01*
X150060000Y-93672500D01*
X148877933Y-93672500D01*
X147849717Y-92644283D01*
X147644095Y-92506890D01*
X148048524Y-92506890D01*
X148218355Y-92916924D01*
X148608642Y-93345183D01*
X149133108Y-93591486D01*
X149363000Y-93470819D01*
X149363000Y-92277000D01*
X149617000Y-92277000D01*
X149617000Y-93470819D01*
X149846892Y-93591486D01*
X150371358Y-93345183D01*
X150761645Y-92916924D01*
X150931476Y-92506890D01*
X150810155Y-92277000D01*
X149617000Y-92277000D01*
X149363000Y-92277000D01*
X148169845Y-92277000D01*
X148048524Y-92506890D01*
X147644095Y-92506890D01*
X147581906Y-92465337D01*
X147266000Y-92402500D01*
X145234000Y-92402500D01*
X144918095Y-92465337D01*
X144650283Y-92644283D01*
X144650281Y-92644286D01*
X142110283Y-95184283D01*
X142110281Y-95184286D01*
X142098067Y-95196500D01*
X140154005Y-95196500D01*
X140154000Y-95196499D01*
X139838094Y-95259337D01*
X139570283Y-95438283D01*
X137538283Y-97470283D01*
X137359337Y-97738094D01*
X137336791Y-97851441D01*
X137296500Y-98054000D01*
X137296500Y-104824067D01*
X134224066Y-107896500D01*
X131097934Y-107896500D01*
X127132686Y-103931252D01*
X127173440Y-103730000D01*
X127173440Y-102030000D01*
X127129162Y-101794683D01*
X126990090Y-101578559D01*
X126777890Y-101433569D01*
X126526000Y-101382560D01*
X124826000Y-101382560D01*
X124590683Y-101426838D01*
X124374559Y-101565910D01*
X124229569Y-101778110D01*
X124207699Y-101886107D01*
X123902924Y-101608355D01*
X123492890Y-101438524D01*
X123263000Y-101559845D01*
X123009000Y-101559845D01*
X122779110Y-101438524D01*
X122369076Y-101608355D01*
X121940817Y-101998642D01*
X121873702Y-102141553D01*
X121646054Y-101800853D01*
X121164285Y-101478946D01*
X120596000Y-101365907D01*
X120027715Y-101478946D01*
X119545946Y-101800853D01*
X119326000Y-102130026D01*
X119106054Y-101800853D01*
X118624285Y-101478946D01*
X118056000Y-101365907D01*
X117487715Y-101478946D01*
X117005946Y-101800853D01*
X116684039Y-102282622D01*
X116571000Y-102850907D01*
X116243882Y-102850907D01*
X116211645Y-102773076D01*
X115821358Y-102344817D01*
X115678447Y-102277702D01*
X116019147Y-102050054D01*
X116341054Y-101568285D01*
X116454093Y-101000000D01*
X116341054Y-100431715D01*
X116019147Y-99949946D01*
X115689974Y-99730000D01*
X116019147Y-99510054D01*
X116341054Y-99028285D01*
X116445981Y-98500783D01*
X118822599Y-100877401D01*
X119069161Y-101042148D01*
X119360000Y-101100000D01*
X127139198Y-101100000D01*
X128726000Y-102686802D01*
X128726000Y-104150000D01*
X128783852Y-104440839D01*
X128948599Y-104687401D01*
X129974965Y-105713767D01*
X129974821Y-105878971D01*
X130132058Y-106259515D01*
X130422954Y-106550919D01*
X130803223Y-106708820D01*
X131214971Y-106709179D01*
X131595515Y-106551942D01*
X131886919Y-106261046D01*
X132044820Y-105880777D01*
X132045179Y-105469029D01*
X131887942Y-105088485D01*
X131597046Y-104797081D01*
X131216777Y-104639180D01*
X131049836Y-104639034D01*
X130246000Y-103835198D01*
X130246000Y-102372000D01*
X130188148Y-102081161D01*
X130023401Y-101834599D01*
X127991401Y-99802599D01*
X127744839Y-99637852D01*
X127454000Y-99580000D01*
X119674802Y-99580000D01*
X116437440Y-96342638D01*
X116437440Y-95070000D01*
X116393162Y-94834683D01*
X116254090Y-94618559D01*
X116041890Y-94473569D01*
X115790000Y-94422560D01*
X114090000Y-94422560D01*
X113854683Y-94466838D01*
X113638559Y-94605910D01*
X113493569Y-94818110D01*
X113442560Y-95070000D01*
X113442560Y-96770000D01*
X113486838Y-97005317D01*
X113625910Y-97221441D01*
X113838110Y-97366431D01*
X113905541Y-97380086D01*
X113860853Y-97409946D01*
X113640535Y-97739676D01*
X113549160Y-97757852D01*
X113302599Y-97922599D01*
X111676599Y-99548599D01*
X111511852Y-99795161D01*
X111454000Y-100086000D01*
X110510000Y-100086000D01*
X110510000Y-91735750D01*
X111765000Y-91735750D01*
X111765000Y-92226310D01*
X111861673Y-92459699D01*
X112040302Y-92638327D01*
X112273691Y-92735000D01*
X112864250Y-92735000D01*
X113023000Y-92576250D01*
X113023000Y-91577000D01*
X111923750Y-91577000D01*
X111765000Y-91735750D01*
X110510000Y-91735750D01*
X110510000Y-83960000D01*
X111072560Y-83960000D01*
X111072560Y-85460000D01*
X111116838Y-85695317D01*
X111255910Y-85911441D01*
X111468110Y-86056431D01*
X111481197Y-86059081D01*
X111268559Y-86195910D01*
X111123569Y-86408110D01*
X111072560Y-86660000D01*
X111072560Y-88160000D01*
X111116838Y-88395317D01*
X111238399Y-88584229D01*
X111085180Y-88953223D01*
X111084821Y-89364971D01*
X111242058Y-89745515D01*
X111532954Y-90036919D01*
X111913223Y-90194820D01*
X112201093Y-90195071D01*
X112040302Y-90261673D01*
X111861673Y-90440301D01*
X111765000Y-90673690D01*
X111765000Y-91164250D01*
X111923750Y-91323000D01*
X113023000Y-91323000D01*
X113023000Y-90323750D01*
X113277000Y-90323750D01*
X113277000Y-91323000D01*
X113297000Y-91323000D01*
X113297000Y-91577000D01*
X113277000Y-91577000D01*
X113277000Y-92576250D01*
X113435750Y-92735000D01*
X114026309Y-92735000D01*
X114259698Y-92638327D01*
X114438327Y-92459699D01*
X114494654Y-92323713D01*
X114496838Y-92335317D01*
X114635910Y-92551441D01*
X114848110Y-92696431D01*
X115100000Y-92747440D01*
X116600000Y-92747440D01*
X116835317Y-92703162D01*
X117051441Y-92564090D01*
X117150000Y-92419844D01*
X117150000Y-94860000D01*
X117207852Y-95150839D01*
X117372599Y-95397401D01*
X119877243Y-97902045D01*
X119972058Y-98131515D01*
X120262954Y-98422919D01*
X120643223Y-98580820D01*
X121054971Y-98581179D01*
X121435515Y-98423942D01*
X121726919Y-98133046D01*
X121884820Y-97752777D01*
X121885179Y-97341029D01*
X121727942Y-96960485D01*
X121437046Y-96669081D01*
X121056777Y-96511180D01*
X120645029Y-96510821D01*
X120638373Y-96513571D01*
X118670000Y-94545198D01*
X118670000Y-92354971D01*
X121144821Y-92354971D01*
X121302058Y-92735515D01*
X121444873Y-92878579D01*
X121442560Y-92890000D01*
X121442560Y-94190000D01*
X121486838Y-94425317D01*
X121625910Y-94641441D01*
X121838110Y-94786431D01*
X122090000Y-94837440D01*
X123590000Y-94837440D01*
X123825317Y-94793162D01*
X124041441Y-94654090D01*
X124186431Y-94441890D01*
X124189081Y-94428803D01*
X124325910Y-94641441D01*
X124538110Y-94786431D01*
X124790000Y-94837440D01*
X125762638Y-94837440D01*
X126440000Y-95514802D01*
X126440000Y-96530000D01*
X126497852Y-96820839D01*
X126662599Y-97067401D01*
X131012000Y-101416802D01*
X131012000Y-101922239D01*
X130895081Y-102038954D01*
X130737180Y-102419223D01*
X130736821Y-102830971D01*
X130894058Y-103211515D01*
X131184954Y-103502919D01*
X131565223Y-103660820D01*
X131976971Y-103661179D01*
X132357515Y-103503942D01*
X132648919Y-103213046D01*
X132806820Y-102832777D01*
X132806913Y-102725750D01*
X133775000Y-102725750D01*
X133775000Y-103316309D01*
X133871673Y-103549698D01*
X134050301Y-103728327D01*
X134283690Y-103825000D01*
X134774250Y-103825000D01*
X134933000Y-103666250D01*
X134933000Y-102567000D01*
X135187000Y-102567000D01*
X135187000Y-103666250D01*
X135345750Y-103825000D01*
X135836310Y-103825000D01*
X136069699Y-103728327D01*
X136248327Y-103549698D01*
X136345000Y-103316309D01*
X136345000Y-102725750D01*
X136186250Y-102567000D01*
X135187000Y-102567000D01*
X134933000Y-102567000D01*
X133933750Y-102567000D01*
X133775000Y-102725750D01*
X132806913Y-102725750D01*
X132807179Y-102421029D01*
X132649942Y-102040485D01*
X132532000Y-101922337D01*
X132532000Y-101102000D01*
X132474148Y-100811161D01*
X132474148Y-100811160D01*
X132309401Y-100564599D01*
X131029773Y-99284971D01*
X131774821Y-99284971D01*
X131932058Y-99665515D01*
X132222954Y-99956919D01*
X132603223Y-100114820D01*
X133014971Y-100115179D01*
X133395515Y-99957942D01*
X133513663Y-99840000D01*
X133762560Y-99840000D01*
X133762560Y-100490000D01*
X133806838Y-100725317D01*
X133945910Y-100941441D01*
X134158110Y-101086431D01*
X134191490Y-101093191D01*
X134050301Y-101151673D01*
X133871673Y-101330302D01*
X133775000Y-101563691D01*
X133775000Y-102154250D01*
X133933750Y-102313000D01*
X134933000Y-102313000D01*
X134933000Y-102293000D01*
X135187000Y-102293000D01*
X135187000Y-102313000D01*
X136186250Y-102313000D01*
X136345000Y-102154250D01*
X136345000Y-101563691D01*
X136248327Y-101330302D01*
X136069699Y-101151673D01*
X135933713Y-101095346D01*
X135945317Y-101093162D01*
X136161441Y-100954090D01*
X136306431Y-100741890D01*
X136357440Y-100490000D01*
X136357440Y-98990000D01*
X136313162Y-98754683D01*
X136174090Y-98538559D01*
X135961890Y-98393569D01*
X135710000Y-98342560D01*
X134513416Y-98342560D01*
X134400000Y-98320000D01*
X133513761Y-98320000D01*
X133397046Y-98203081D01*
X133016777Y-98045180D01*
X132605029Y-98044821D01*
X132224485Y-98202058D01*
X131933081Y-98492954D01*
X131775180Y-98873223D01*
X131774821Y-99284971D01*
X131029773Y-99284971D01*
X127960000Y-96215198D01*
X127960000Y-95200000D01*
X127902148Y-94909161D01*
X127737401Y-94662599D01*
X126937440Y-93862638D01*
X126937440Y-92920000D01*
X130692560Y-92920000D01*
X130692560Y-93920000D01*
X130736838Y-94155317D01*
X130875910Y-94371441D01*
X131088110Y-94516431D01*
X131340000Y-94567440D01*
X132340000Y-94567440D01*
X132575317Y-94523162D01*
X132791441Y-94384090D01*
X132839134Y-94314289D01*
X132875910Y-94371441D01*
X133088110Y-94516431D01*
X133340000Y-94567440D01*
X134340000Y-94567440D01*
X134575317Y-94523162D01*
X134791441Y-94384090D01*
X134839134Y-94314289D01*
X134875910Y-94371441D01*
X135088110Y-94516431D01*
X135340000Y-94567440D01*
X136340000Y-94567440D01*
X136575317Y-94523162D01*
X136791441Y-94384090D01*
X136839134Y-94314289D01*
X136875910Y-94371441D01*
X137088110Y-94516431D01*
X137340000Y-94567440D01*
X138340000Y-94567440D01*
X138575317Y-94523162D01*
X138791441Y-94384090D01*
X138839134Y-94314289D01*
X138875910Y-94371441D01*
X139088110Y-94516431D01*
X139340000Y-94567440D01*
X140340000Y-94567440D01*
X140575317Y-94523162D01*
X140791441Y-94384090D01*
X140839134Y-94314289D01*
X140875910Y-94371441D01*
X141088110Y-94516431D01*
X141340000Y-94567440D01*
X142340000Y-94567440D01*
X142575317Y-94523162D01*
X142791441Y-94384090D01*
X142936431Y-94171890D01*
X142987440Y-93920000D01*
X142987440Y-92920000D01*
X142943162Y-92684683D01*
X142804090Y-92468559D01*
X142591890Y-92323569D01*
X142340000Y-92272560D01*
X141340000Y-92272560D01*
X141104683Y-92316838D01*
X140888559Y-92455910D01*
X140840866Y-92525711D01*
X140804090Y-92468559D01*
X140591890Y-92323569D01*
X140340000Y-92272560D01*
X139340000Y-92272560D01*
X139104683Y-92316838D01*
X138888559Y-92455910D01*
X138840866Y-92525711D01*
X138804090Y-92468559D01*
X138591890Y-92323569D01*
X138340000Y-92272560D01*
X137340000Y-92272560D01*
X137104683Y-92316838D01*
X136888559Y-92455910D01*
X136840866Y-92525711D01*
X136804090Y-92468559D01*
X136591890Y-92323569D01*
X136340000Y-92272560D01*
X135340000Y-92272560D01*
X135104683Y-92316838D01*
X134888559Y-92455910D01*
X134840866Y-92525711D01*
X134804090Y-92468559D01*
X134591890Y-92323569D01*
X134340000Y-92272560D01*
X133340000Y-92272560D01*
X133104683Y-92316838D01*
X132888559Y-92455910D01*
X132840866Y-92525711D01*
X132804090Y-92468559D01*
X132591890Y-92323569D01*
X132340000Y-92272560D01*
X131340000Y-92272560D01*
X131104683Y-92316838D01*
X130888559Y-92455910D01*
X130743569Y-92668110D01*
X130692560Y-92920000D01*
X126937440Y-92920000D01*
X126937440Y-92890000D01*
X126893162Y-92654683D01*
X126754090Y-92438559D01*
X126541890Y-92293569D01*
X126300000Y-92244585D01*
X126300000Y-88710000D01*
X126242148Y-88419161D01*
X126077401Y-88172599D01*
X125565035Y-87660233D01*
X125565179Y-87495029D01*
X125407942Y-87114485D01*
X125117046Y-86823081D01*
X124736777Y-86665180D01*
X124325029Y-86664821D01*
X123944485Y-86822058D01*
X123653081Y-87112954D01*
X123495180Y-87493223D01*
X123494821Y-87904971D01*
X123652058Y-88285515D01*
X123942954Y-88576919D01*
X124323223Y-88734820D01*
X124490164Y-88734966D01*
X124780000Y-89024802D01*
X124780000Y-92244442D01*
X124554683Y-92286838D01*
X124338559Y-92425910D01*
X124193569Y-92638110D01*
X124190919Y-92651197D01*
X124054090Y-92438559D01*
X123841890Y-92293569D01*
X123590000Y-92242560D01*
X123350190Y-92242560D01*
X123215037Y-92107407D01*
X123215179Y-91945029D01*
X123057942Y-91564485D01*
X122767046Y-91273081D01*
X122386777Y-91115180D01*
X121975029Y-91114821D01*
X121594485Y-91272058D01*
X121303081Y-91562954D01*
X121145180Y-91943223D01*
X121144821Y-92354971D01*
X118670000Y-92354971D01*
X118670000Y-86190750D01*
X119670000Y-86190750D01*
X119670000Y-86331310D01*
X119766673Y-86564699D01*
X119945302Y-86743327D01*
X120178691Y-86840000D01*
X120794250Y-86840000D01*
X120953000Y-86681250D01*
X120953000Y-86032000D01*
X121207000Y-86032000D01*
X121207000Y-86681250D01*
X121365750Y-86840000D01*
X121981309Y-86840000D01*
X122214698Y-86743327D01*
X122393327Y-86564699D01*
X122490000Y-86331310D01*
X122490000Y-86190750D01*
X122331250Y-86032000D01*
X121207000Y-86032000D01*
X120953000Y-86032000D01*
X119828750Y-86032000D01*
X119670000Y-86190750D01*
X118670000Y-86190750D01*
X118670000Y-85814802D01*
X119089802Y-85395000D01*
X119704666Y-85395000D01*
X119670000Y-85478690D01*
X119670000Y-85619250D01*
X119828750Y-85778000D01*
X120953000Y-85778000D01*
X120953000Y-85758000D01*
X121207000Y-85758000D01*
X121207000Y-85778000D01*
X122331250Y-85778000D01*
X122490000Y-85619250D01*
X122490000Y-85478690D01*
X122400194Y-85261878D01*
X122451431Y-85186890D01*
X122502440Y-84935000D01*
X122502440Y-84335000D01*
X122462926Y-84125000D01*
X122582317Y-84125000D01*
X122606838Y-84255317D01*
X122745910Y-84471441D01*
X122958110Y-84616431D01*
X123210000Y-84667440D01*
X124710000Y-84667440D01*
X124945317Y-84623162D01*
X125161441Y-84484090D01*
X125306431Y-84271890D01*
X125309081Y-84258803D01*
X125445910Y-84471441D01*
X125658110Y-84616431D01*
X125910000Y-84667440D01*
X127410000Y-84667440D01*
X127645317Y-84623162D01*
X127861441Y-84484090D01*
X128006431Y-84271890D01*
X128057440Y-84020000D01*
X128057440Y-82720000D01*
X128055559Y-82710000D01*
X136362560Y-82710000D01*
X136362560Y-84210000D01*
X136406838Y-84445317D01*
X136545910Y-84661441D01*
X136758110Y-84806431D01*
X136771197Y-84809081D01*
X136558559Y-84945910D01*
X136413569Y-85158110D01*
X136362560Y-85410000D01*
X136362560Y-86910000D01*
X136406838Y-87145317D01*
X136545910Y-87361441D01*
X136758110Y-87506431D01*
X136786034Y-87512086D01*
X136737081Y-87560954D01*
X136579180Y-87941223D01*
X136578821Y-88352971D01*
X136736058Y-88733515D01*
X137026954Y-89024919D01*
X137407223Y-89182820D01*
X137648228Y-89183030D01*
X139732599Y-91267401D01*
X139979160Y-91432148D01*
X140027414Y-91441746D01*
X140270000Y-91490000D01*
X145006239Y-91490000D01*
X145122954Y-91606919D01*
X145503223Y-91764820D01*
X145914971Y-91765179D01*
X146295515Y-91607942D01*
X146586919Y-91317046D01*
X146744820Y-90936777D01*
X146745179Y-90525029D01*
X146587942Y-90144485D01*
X146297046Y-89853081D01*
X145916777Y-89695180D01*
X145505029Y-89694821D01*
X145124485Y-89852058D01*
X145006337Y-89970000D01*
X140584802Y-89970000D01*
X138649099Y-88034297D01*
X138649179Y-87943029D01*
X138491942Y-87562485D01*
X138458931Y-87529417D01*
X138545317Y-87513162D01*
X138761441Y-87374090D01*
X138906431Y-87161890D01*
X138957440Y-86910000D01*
X138957440Y-85410000D01*
X138913162Y-85174683D01*
X138774090Y-84958559D01*
X138561890Y-84813569D01*
X138548803Y-84810919D01*
X138761441Y-84674090D01*
X138906431Y-84461890D01*
X138955010Y-84222000D01*
X139250000Y-84222000D01*
X139541605Y-84163996D01*
X139788815Y-83998815D01*
X140650191Y-83137440D01*
X140989810Y-83137440D01*
X145461184Y-87608815D01*
X145708395Y-87773996D01*
X146000000Y-87832000D01*
X147992560Y-87832000D01*
X147992560Y-87920000D01*
X148036838Y-88155317D01*
X148175910Y-88371441D01*
X148388110Y-88516431D01*
X148455541Y-88530086D01*
X148410853Y-88559946D01*
X148088946Y-89041715D01*
X147975907Y-89610000D01*
X148088946Y-90178285D01*
X148410853Y-90660054D01*
X148751553Y-90887702D01*
X148608642Y-90954817D01*
X148218355Y-91383076D01*
X148048524Y-91793110D01*
X148169845Y-92023000D01*
X149363000Y-92023000D01*
X149363000Y-92003000D01*
X149617000Y-92003000D01*
X149617000Y-92023000D01*
X150810155Y-92023000D01*
X150931476Y-91793110D01*
X150761645Y-91383076D01*
X150371358Y-90954817D01*
X150228447Y-90887702D01*
X150569147Y-90660054D01*
X150891054Y-90178285D01*
X151004093Y-89610000D01*
X150891054Y-89041715D01*
X150569147Y-88559946D01*
X150527548Y-88532150D01*
X150575317Y-88523162D01*
X150791441Y-88384090D01*
X150936431Y-88171890D01*
X150987440Y-87920000D01*
X150987440Y-86220000D01*
X150943162Y-85984683D01*
X150804090Y-85768559D01*
X150591890Y-85623569D01*
X150340000Y-85572560D01*
X148640000Y-85572560D01*
X148404683Y-85616838D01*
X148188559Y-85755910D01*
X148043569Y-85968110D01*
X147992560Y-86220000D01*
X147992560Y-86308000D01*
X146315631Y-86308000D01*
X142067440Y-82059810D01*
X142067440Y-81290000D01*
X142023162Y-81054683D01*
X141884090Y-80838559D01*
X141744245Y-80743007D01*
X141798430Y-80688822D01*
X141682737Y-80573129D01*
X141908164Y-80523617D01*
X142067807Y-80058964D01*
X142037482Y-79568587D01*
X141908164Y-79256383D01*
X141682735Y-79206870D01*
X140999605Y-79890000D01*
X141013748Y-79904143D01*
X140834143Y-80083748D01*
X140820000Y-80069605D01*
X140805858Y-80083748D01*
X140626253Y-79904143D01*
X140640395Y-79890000D01*
X139957265Y-79206870D01*
X139731836Y-79256383D01*
X139572193Y-79721036D01*
X139602518Y-80211413D01*
X139731836Y-80523617D01*
X139957263Y-80573129D01*
X139841570Y-80688822D01*
X139896397Y-80743649D01*
X139768559Y-80825910D01*
X139623569Y-81038110D01*
X139572560Y-81290000D01*
X139572560Y-82059809D01*
X138951886Y-82680484D01*
X138913162Y-82474683D01*
X138774090Y-82258559D01*
X138561890Y-82113569D01*
X138310000Y-82062560D01*
X137010000Y-82062560D01*
X136774683Y-82106838D01*
X136558559Y-82245910D01*
X136413569Y-82458110D01*
X136362560Y-82710000D01*
X128055559Y-82710000D01*
X128013162Y-82484683D01*
X127874090Y-82268559D01*
X127661890Y-82123569D01*
X127420000Y-82074585D01*
X127420000Y-81984409D01*
X127591441Y-81874090D01*
X127736431Y-81661890D01*
X127787440Y-81410000D01*
X127787440Y-80919319D01*
X127988110Y-81056431D01*
X128240000Y-81107440D01*
X129140000Y-81107440D01*
X129375317Y-81063162D01*
X129591441Y-80924090D01*
X129736431Y-80711890D01*
X129787440Y-80460000D01*
X129787440Y-79660000D01*
X129743162Y-79424683D01*
X129604090Y-79208559D01*
X129450000Y-79103274D01*
X129450000Y-79027265D01*
X140136870Y-79027265D01*
X140820000Y-79710395D01*
X141503130Y-79027265D01*
X141453617Y-78801836D01*
X140988964Y-78642193D01*
X140498587Y-78672518D01*
X140186383Y-78801836D01*
X140136870Y-79027265D01*
X129450000Y-79027265D01*
X129450000Y-78374595D01*
X129635515Y-78297942D01*
X129926919Y-78007046D01*
X130084820Y-77626777D01*
X130085179Y-77215029D01*
X129927942Y-76834485D01*
X129637046Y-76543081D01*
X129256777Y-76385180D01*
X128845029Y-76384821D01*
X128464485Y-76542058D01*
X128173081Y-76832954D01*
X128015180Y-77213223D01*
X128014992Y-77428543D01*
X127987852Y-77469161D01*
X127930000Y-77760000D01*
X127930000Y-79104895D01*
X127788559Y-79195910D01*
X127701936Y-79322686D01*
X127616250Y-79237000D01*
X126817000Y-79237000D01*
X126817000Y-79257000D01*
X126563000Y-79257000D01*
X126563000Y-79237000D01*
X125763750Y-79237000D01*
X125605000Y-79395750D01*
X125605000Y-79636310D01*
X125701673Y-79869699D01*
X125880302Y-80048327D01*
X125916747Y-80063423D01*
X125788559Y-80145910D01*
X125643569Y-80358110D01*
X125592560Y-80610000D01*
X125592560Y-81410000D01*
X125636838Y-81645317D01*
X125775910Y-81861441D01*
X125900000Y-81946228D01*
X125900000Y-82074442D01*
X125674683Y-82116838D01*
X125458559Y-82255910D01*
X125313569Y-82468110D01*
X125310919Y-82481197D01*
X125174090Y-82268559D01*
X124961890Y-82123569D01*
X124710000Y-82072560D01*
X123210000Y-82072560D01*
X122974683Y-82116838D01*
X122758559Y-82255910D01*
X122613569Y-82468110D01*
X122585848Y-82605000D01*
X122459914Y-82605000D01*
X122502440Y-82395000D01*
X122502440Y-81795000D01*
X122458162Y-81559683D01*
X122319090Y-81343559D01*
X122106890Y-81198569D01*
X121855000Y-81147560D01*
X120305000Y-81147560D01*
X120069683Y-81191838D01*
X119853559Y-81330910D01*
X119708569Y-81543110D01*
X119657560Y-81795000D01*
X119657560Y-82395000D01*
X119701838Y-82630317D01*
X119765678Y-82729528D01*
X119708569Y-82813110D01*
X119657560Y-83065000D01*
X119657560Y-83665000D01*
X119697074Y-83875000D01*
X118775000Y-83875000D01*
X118484161Y-83932852D01*
X118237599Y-84097599D01*
X117372599Y-84962599D01*
X117207852Y-85209161D01*
X117150000Y-85500000D01*
X117150000Y-90482067D01*
X117064090Y-90348559D01*
X116851890Y-90203569D01*
X116600000Y-90152560D01*
X115100000Y-90152560D01*
X114864683Y-90196838D01*
X114648559Y-90335910D01*
X114503569Y-90548110D01*
X114496809Y-90581490D01*
X114438327Y-90440301D01*
X114259698Y-90261673D01*
X114026309Y-90165000D01*
X113435750Y-90165000D01*
X113277000Y-90323750D01*
X113023000Y-90323750D01*
X112864250Y-90165000D01*
X112398010Y-90165000D01*
X112705515Y-90037942D01*
X112996919Y-89747046D01*
X113154820Y-89366777D01*
X113155179Y-88955029D01*
X113088844Y-88794486D01*
X113255317Y-88763162D01*
X113471441Y-88624090D01*
X113616431Y-88411890D01*
X113667440Y-88160000D01*
X113667440Y-86660000D01*
X113623162Y-86424683D01*
X113484090Y-86208559D01*
X113271890Y-86063569D01*
X113258803Y-86060919D01*
X113471441Y-85924090D01*
X113616431Y-85711890D01*
X113667440Y-85460000D01*
X113667440Y-84487362D01*
X114029802Y-84125000D01*
X114300086Y-84125000D01*
X114257560Y-84335000D01*
X114257560Y-84935000D01*
X114301838Y-85170317D01*
X114365678Y-85269528D01*
X114308569Y-85353110D01*
X114257560Y-85605000D01*
X114257560Y-86205000D01*
X114301838Y-86440317D01*
X114440910Y-86656441D01*
X114653110Y-86801431D01*
X114905000Y-86852440D01*
X116455000Y-86852440D01*
X116690317Y-86808162D01*
X116906441Y-86669090D01*
X117051431Y-86456890D01*
X117102440Y-86205000D01*
X117102440Y-85605000D01*
X117058162Y-85369683D01*
X116994322Y-85270472D01*
X117051431Y-85186890D01*
X117102440Y-84935000D01*
X117102440Y-84335000D01*
X117058162Y-84099683D01*
X116994322Y-84000472D01*
X117051431Y-83916890D01*
X117102440Y-83665000D01*
X117102440Y-83065000D01*
X117058162Y-82829683D01*
X116994322Y-82730472D01*
X117051431Y-82646890D01*
X117102440Y-82395000D01*
X117102440Y-81795000D01*
X117058162Y-81559683D01*
X116919090Y-81343559D01*
X116706890Y-81198569D01*
X116505500Y-81157787D01*
X116505500Y-77171036D01*
X119342193Y-77171036D01*
X119372518Y-77661413D01*
X119501836Y-77973617D01*
X119727265Y-78023130D01*
X120410395Y-77340000D01*
X119727265Y-76656870D01*
X119501836Y-76706383D01*
X119342193Y-77171036D01*
X116505500Y-77171036D01*
X116505500Y-76441934D01*
X117271934Y-75675500D01*
X121448066Y-75675500D01*
X121764500Y-75991934D01*
X121764500Y-76134991D01*
X121754683Y-76136838D01*
X121538559Y-76275910D01*
X121443007Y-76415755D01*
X121388822Y-76361570D01*
X121273129Y-76477263D01*
X121223617Y-76251836D01*
X120758964Y-76092193D01*
X120268587Y-76122518D01*
X119956383Y-76251836D01*
X119906870Y-76477265D01*
X120590000Y-77160395D01*
X120604143Y-77146253D01*
X120783748Y-77325858D01*
X120769605Y-77340000D01*
X120783748Y-77354143D01*
X120604143Y-77533748D01*
X120590000Y-77519605D01*
X119906870Y-78202735D01*
X119956383Y-78428164D01*
X120421036Y-78587807D01*
X120911413Y-78557482D01*
X121223617Y-78428164D01*
X121273129Y-78202737D01*
X121388822Y-78318430D01*
X121443649Y-78263603D01*
X121525910Y-78391441D01*
X121738110Y-78536431D01*
X121990000Y-78587440D01*
X123190000Y-78587440D01*
X123209929Y-78583690D01*
X125605000Y-78583690D01*
X125605000Y-78824250D01*
X125763750Y-78983000D01*
X126563000Y-78983000D01*
X126563000Y-78233750D01*
X126817000Y-78233750D01*
X126817000Y-78983000D01*
X127616250Y-78983000D01*
X127775000Y-78824250D01*
X127775000Y-78583690D01*
X127678327Y-78350301D01*
X127499698Y-78171673D01*
X127266309Y-78075000D01*
X126975750Y-78075000D01*
X126817000Y-78233750D01*
X126563000Y-78233750D01*
X126404250Y-78075000D01*
X126113691Y-78075000D01*
X125880302Y-78171673D01*
X125701673Y-78350301D01*
X125605000Y-78583690D01*
X123209929Y-78583690D01*
X123425317Y-78543162D01*
X123641441Y-78404090D01*
X123786431Y-78191890D01*
X123837440Y-77940000D01*
X123837440Y-76740000D01*
X123793162Y-76504683D01*
X123654090Y-76288559D01*
X123441890Y-76143569D01*
X123415500Y-76138225D01*
X123415500Y-75650005D01*
X123415501Y-75650000D01*
X123415500Y-75649995D01*
X123415500Y-73777440D01*
X123420000Y-73777440D01*
X123655317Y-73733162D01*
X123871441Y-73594090D01*
X124016431Y-73381890D01*
X124067440Y-73130000D01*
X124067440Y-73105500D01*
X126688066Y-73105500D01*
X126857560Y-73274994D01*
X126857560Y-74465000D01*
X126901838Y-74700317D01*
X127040910Y-74916441D01*
X127253110Y-75061431D01*
X127505000Y-75112440D01*
X129215000Y-75112440D01*
X129450317Y-75068162D01*
X129666441Y-74929090D01*
X129811431Y-74716890D01*
X129862440Y-74465000D01*
X129862440Y-74435500D01*
X132168907Y-74435500D01*
X132176103Y-74452915D01*
X132594881Y-74872424D01*
X132614500Y-74880571D01*
X132614500Y-75242560D01*
X131690000Y-75242560D01*
X131454683Y-75286838D01*
X131238559Y-75425910D01*
X131093569Y-75638110D01*
X131042560Y-75890000D01*
X131042560Y-77690000D01*
X131086838Y-77925317D01*
X131225910Y-78141441D01*
X131438110Y-78286431D01*
X131690000Y-78337440D01*
X135190000Y-78337440D01*
X135425317Y-78293162D01*
X135641441Y-78154090D01*
X135786431Y-77941890D01*
X135837440Y-77690000D01*
X135837440Y-75890000D01*
X136042560Y-75890000D01*
X136042560Y-77690000D01*
X136086838Y-77925317D01*
X136225910Y-78141441D01*
X136438110Y-78286431D01*
X136690000Y-78337440D01*
X140190000Y-78337440D01*
X140425317Y-78293162D01*
X140641441Y-78154090D01*
X140786431Y-77941890D01*
X140837440Y-77690000D01*
X140837440Y-75890000D01*
X140793162Y-75654683D01*
X140654090Y-75438559D01*
X140441890Y-75293569D01*
X140190000Y-75242560D01*
X139287287Y-75242560D01*
X139286197Y-74905596D01*
X139362915Y-74873897D01*
X139782424Y-74455119D01*
X140009741Y-73907680D01*
X140010258Y-73314921D01*
X139783897Y-72767085D01*
X139365119Y-72347576D01*
X138817680Y-72120259D01*
X138224921Y-72119742D01*
X137677085Y-72346103D01*
X137257576Y-72764881D01*
X137030259Y-73312320D01*
X137029742Y-73905079D01*
X137256103Y-74452915D01*
X137674881Y-74872424D01*
X137758000Y-74906938D01*
X137758000Y-75242560D01*
X136690000Y-75242560D01*
X136454683Y-75286838D01*
X136238559Y-75425910D01*
X136093569Y-75638110D01*
X136042560Y-75890000D01*
X135837440Y-75890000D01*
X135793162Y-75654683D01*
X135654090Y-75438559D01*
X135441890Y-75293569D01*
X135190000Y-75242560D01*
X134270654Y-75242560D01*
X134269509Y-74879436D01*
X134282915Y-74873897D01*
X134702424Y-74455119D01*
X134929741Y-73907680D01*
X134930258Y-73314921D01*
X134703897Y-72767085D01*
X134285119Y-72347576D01*
X133737680Y-72120259D01*
X133144921Y-72119742D01*
X132597085Y-72346103D01*
X132177576Y-72764881D01*
X132169429Y-72784500D01*
X129862440Y-72784500D01*
X129862440Y-72755000D01*
X129818162Y-72519683D01*
X129679090Y-72303559D01*
X129466890Y-72158569D01*
X129215000Y-72107560D01*
X128024994Y-72107560D01*
X127613717Y-71696283D01*
X127345906Y-71517337D01*
X127030000Y-71454500D01*
X124067440Y-71454500D01*
X124067440Y-71430000D01*
X124023162Y-71194683D01*
X123884090Y-70978559D01*
X123671890Y-70833569D01*
X123420000Y-70782560D01*
X121720000Y-70782560D01*
X121484683Y-70826838D01*
X121268559Y-70965910D01*
X121123569Y-71178110D01*
X121101699Y-71286107D01*
X120796924Y-71008355D01*
X120386890Y-70838524D01*
X120157000Y-70959845D01*
X120157000Y-72153000D01*
X120177000Y-72153000D01*
X120177000Y-72407000D01*
X120157000Y-72407000D01*
X120157000Y-73600155D01*
X120386890Y-73721476D01*
X120796924Y-73551645D01*
X121099937Y-73275499D01*
X121116838Y-73365317D01*
X121255910Y-73581441D01*
X121468110Y-73726431D01*
X121720000Y-73777440D01*
X121764500Y-73777440D01*
X121764500Y-74024500D01*
X116930005Y-74024500D01*
X116930000Y-74024499D01*
X116614094Y-74087337D01*
X116346283Y-74266283D01*
X115096283Y-75516283D01*
X114917337Y-75784094D01*
X114881173Y-75965906D01*
X114854500Y-76100000D01*
X114854500Y-81157062D01*
X114669683Y-81191838D01*
X114453559Y-81330910D01*
X114308569Y-81543110D01*
X114257560Y-81795000D01*
X114257560Y-82395000D01*
X114297074Y-82605000D01*
X113715000Y-82605000D01*
X113424160Y-82662852D01*
X113177599Y-82827599D01*
X112692638Y-83312560D01*
X111720000Y-83312560D01*
X111484683Y-83356838D01*
X111268559Y-83495910D01*
X111123569Y-83708110D01*
X111072560Y-83960000D01*
X110510000Y-83960000D01*
X110510000Y-73122815D01*
X111164630Y-73122815D01*
X111488980Y-73907800D01*
X112089041Y-74508909D01*
X112873459Y-74834628D01*
X113722815Y-74835370D01*
X114507800Y-74511020D01*
X115108909Y-73910959D01*
X115434628Y-73126541D01*
X115435055Y-72636892D01*
X118588514Y-72636892D01*
X118834817Y-73161358D01*
X119263076Y-73551645D01*
X119673110Y-73721476D01*
X119903000Y-73600155D01*
X119903000Y-72407000D01*
X118709181Y-72407000D01*
X118588514Y-72636892D01*
X115435055Y-72636892D01*
X115435370Y-72277185D01*
X115289069Y-71923108D01*
X118588514Y-71923108D01*
X118709181Y-72153000D01*
X119903000Y-72153000D01*
X119903000Y-70959845D01*
X119673110Y-70838524D01*
X119263076Y-71008355D01*
X118834817Y-71398642D01*
X118588514Y-71923108D01*
X115289069Y-71923108D01*
X115111020Y-71492200D01*
X114510959Y-70891091D01*
X113726541Y-70565372D01*
X112877185Y-70564630D01*
X112092200Y-70888980D01*
X111491091Y-71489041D01*
X111165372Y-72273459D01*
X111164630Y-73122815D01*
X110510000Y-73122815D01*
X110510000Y-70310000D01*
X153090000Y-70310000D01*
X153090000Y-112890000D01*
M02*
