G04 #@! TF.FileFunction,Soldermask,Top*
%FSLAX46Y46*%
G04 Gerber Fmt 4.6, Leading zero omitted, Abs format (unit mm)*
G04 Created by KiCad (PCBNEW 4.0.7) date Sun Jun 24 13:53:47 2018*
%MOMM*%
%LPD*%
G01*
G04 APERTURE LIST*
%ADD10C,0.100000*%
%ADD11C,0.150000*%
%ADD12R,2.900000X1.500000*%
%ADD13R,1.500000X2.900000*%
%ADD14R,1.600000X1.600000*%
%ADD15C,1.600000*%
%ADD16C,3.400000*%
%ADD17R,1.900000X1.700000*%
%ADD18R,1.700000X1.900000*%
%ADD19R,2.100000X1.400000*%
%ADD20R,1.400000X2.100000*%
%ADD21R,2.400000X4.200000*%
%ADD22R,2.400000X1.900000*%
%ADD23R,2.110000X2.110000*%
%ADD24C,2.110000*%
%ADD25R,2.100000X2.100000*%
%ADD26O,2.100000X2.100000*%
%ADD27R,1.400000X1.400000*%
G04 APERTURE END LIST*
D10*
D11*
X109800000Y-113600000D02*
X109800000Y-69600000D01*
X153800000Y-113600000D02*
X109800000Y-113600000D01*
X153800000Y-69600000D02*
X153800000Y-113600000D01*
X109800000Y-69600000D02*
X153800000Y-69600000D01*
D12*
X144530000Y-111670000D03*
X144530000Y-109670000D03*
X144530000Y-107670000D03*
X144530000Y-105670000D03*
X144530000Y-103670000D03*
X144530000Y-101670000D03*
X144530000Y-99670000D03*
X144530000Y-97670000D03*
X129130000Y-97670000D03*
X129130000Y-99670000D03*
X129130000Y-101670000D03*
X129130000Y-103670000D03*
X129130000Y-105670000D03*
X129130000Y-107670000D03*
X129130000Y-109670000D03*
X129130000Y-111670000D03*
D13*
X141840000Y-95970000D03*
X139840000Y-95970000D03*
X137840000Y-95970000D03*
X135840000Y-95970000D03*
X133840000Y-95970000D03*
X131840000Y-95970000D03*
D14*
X140820000Y-81890000D03*
D15*
X140820000Y-79890000D03*
D16*
X113300000Y-109600000D03*
X113300000Y-72700000D03*
X150300000Y-109600000D03*
X150300000Y-72600000D03*
D14*
X122590000Y-77340000D03*
D15*
X120590000Y-77340000D03*
D17*
X114870000Y-91080000D03*
X112170000Y-91080000D03*
D18*
X151584000Y-103976000D03*
X151584000Y-101276000D03*
X149806000Y-101276000D03*
X149806000Y-103976000D03*
D19*
X135176000Y-86746000D03*
X128876000Y-86746000D03*
X135176000Y-82946000D03*
X128876000Y-82946000D03*
D20*
X116620000Y-79380000D03*
X116620000Y-85680000D03*
X112820000Y-79380000D03*
X112820000Y-85680000D03*
D21*
X151220000Y-81290000D03*
D22*
X144920000Y-81290000D03*
X144920000Y-83590000D03*
X144920000Y-78990000D03*
D23*
X128360000Y-73610000D03*
D24*
X133440000Y-73610000D03*
X138520000Y-73610000D03*
X143600000Y-73610000D03*
D25*
X149490000Y-87070000D03*
D26*
X149490000Y-89610000D03*
X149490000Y-92150000D03*
D25*
X122570000Y-72280000D03*
D26*
X120030000Y-72280000D03*
D27*
X141840000Y-93420000D03*
X139840000Y-93420000D03*
X137840000Y-93420000D03*
X135840000Y-93420000D03*
X133840000Y-93420000D03*
X131840000Y-93420000D03*
D25*
X114940000Y-95920000D03*
D26*
X114940000Y-98460000D03*
X114940000Y-101000000D03*
X114940000Y-103540000D03*
D25*
X125676000Y-102880000D03*
D26*
X123136000Y-102880000D03*
X120596000Y-102880000D03*
X118056000Y-102880000D03*
M02*
