M48
;DRILL file {KiCad 4.0.7} date Sun Jun 24 14:05:51 2018
;FORMAT={-:-/ absolute / metric / decimal}
FMAT,2
METRIC,TZ
T1C0.400
T2C0.600
T3C0.700
T4C0.710
T5C1.000
%
G90
G05
M71
T1
X112.12Y-89.16
X120.85Y-97.546
X120.85Y-107.706
X122.18Y-92.15
X124.53Y-87.7
X125.168Y-109.484
X129.05Y-77.42
X131.01Y-105.674
X131.772Y-102.626
X132.81Y-99.08
X137.614Y-88.148
X140.37Y-103.88
X141.424Y-100.086
X145.71Y-90.73
X146.504Y-95.26
X146.76Y-111.14
X148.79Y-106.436
T2
X120.59Y-77.34
X122.59Y-77.34
X140.82Y-79.89
X140.82Y-81.89
T3
X131.84Y-93.42
X133.84Y-93.42
X135.84Y-93.42
X137.84Y-93.42
X139.84Y-93.42
X141.84Y-93.42
T4
X128.36Y-73.61
X133.44Y-73.61
X138.52Y-73.61
X143.6Y-73.61
T5
X114.94Y-95.92
X114.94Y-98.46
X114.94Y-101.
X114.94Y-103.54
X118.056Y-102.88
X120.03Y-72.28
X120.596Y-102.88
X122.57Y-72.28
X123.136Y-102.88
X125.676Y-102.88
X149.49Y-87.07
X149.49Y-89.61
X149.49Y-92.15
T0
M30
